<?xml version="1.0" standalone="no"?>
<!DOCTYPE svg PUBLIC "-//W3C//DTD SVG 1.1//EN" "http://www.w3.org/Graphics/SVG/1.1/DTD/svg11.dtd" >
<svg xmlns="http://www.w3.org/2000/svg" xmlns:xlink="http://www.w3.org/1999/xlink" version="1.1">
<metadata>
Created by FontForge 20230101 at Sat May  5 20:29:12 2001
 By Glenn Lewis
(c) 2001 Tom 7. http://fonts.tom7.com/ - Music DBZ is licensed for your use freely; but don't sell it (on CD for instance!) - imightbetm@aol.com - 339 Still Hill Rd - Hamden CT 06518 - USA - froot loops
</metadata>
<defs>
<font id="MusicDBZ" horiz-adv-x="835" >
  <font-face 
    font-family="Music DBZ"
    font-weight="400"
    font-stretch="normal"
    units-per-em="1000"
    panose-1="0 0 4 0 0 0 0 0 0 0"
    ascent="800"
    descent="-200"
    x-height="704"
    cap-height="930"
    bbox="-27 -200 2739 930"
    underline-thickness="20"
    underline-position="-143"
    unicode-range="U+0020-2026"
  />
<missing-glyph horiz-adv-x="500" 
d="M63 0v800h375v-800h-375zM125 63h250v675h-250v-675z" />
    <glyph glyph-name=".notdef" horiz-adv-x="500" 
d="M63 0v800h375v-800h-375zM125 63h250v675h-250v-675z" />
    <glyph glyph-name=".null" horiz-adv-x="0" 
 />
    <glyph glyph-name="nonmarkingreturn" horiz-adv-x="1510" 
 />
    <glyph glyph-name="space" unicode=" " horiz-adv-x="1510" 
 />
    <glyph glyph-name="exclam" unicode="!" horiz-adv-x="1260" 
d="M1216 713q0 -2 -9 -23q0 -9 -6 -24q-50 -49 -83 -91q-78 -100 -170 -155q-2 -1 -180 -122q-99 -68 -230 -139q-35 -15 -102 -43q-56 -24 -82 -33q-48 -16 -88 -20q-5 5 -36 63q-33 64 -33 79q0 13 52 43q44 25 68 32q61 21 182 65q9 6 24 15q75 30 257 157q53 37 115 88
q24 20 82.5 78.5t90.5 85.5q14 12 43 12q21 0 61 -23q44 -24 44 -45zM193 102q0 -41 -33 -69t-70 -28q-42 0 -70 42q-23 35 -23 75q0 30 25 58.5t56 28.5q50 0 82.5 -29t32.5 -78zM1165 712l-63 32q-135 -148 -390 -324q-115 -79 -203 -116l-134 -46q-95 -32 -134 -61
q18 -24 48 -86q61 13 149.5 51.5t157.5 82.5q91 56 267 176q19 14 31 20q70 39 148 116.5t123 154.5zM149 102q0 -2 -15 41q-5 8 -13 13q-18 9 -36 9q-19 0 -31 -22q-10 -18 -10 -34q0 -18 17.5 -35.5t35.5 -17.5q14 0 33 14t19 32z" />
    <glyph glyph-name="quotedbl" unicode="&#x22;" horiz-adv-x="524" 
d="M266 690q-4 -23 -14 -67q-49 -168 -103 -227q-77 13 -119 46q15 51 46 146q8 22 8.5 68.5t6.5 68.5q1 2 8 2q32 0 167 -37zM216 654q-4 10 -98 22q0 -32 -16 -122q-11 -40 -15 -52q-9 -28 -19 -43l63 -26q20 36 57 121q10 23 20 47.5t10 39.5q0 7 -2 13zM500 690
q-4 -23 -14 -67q-49 -168 -103 -227q-77 13 -119 46q15 51 46 146q8 22 8.5 68.5t6.5 68.5q1 2 8 2q32 0 167 -37zM450 654q-4 10 -98 22q0 -32 -16 -122q-11 -40 -15 -52q-9 -28 -19 -43l63 -26q20 36 57 121q10 23 20 47.5t10 39.5q0 7 -2 13z" />
    <glyph glyph-name="numbersign" unicode="#" 
d="M804 516q0 -123 -63 -214q-71 -103 -190 -103q-50 0 -114 32q-76 37 -76 82q0 17 39 68.5t56 53.5q41 -28 72 -28q36 0 62.5 35t26.5 72q0 52 -43.5 87t-95.5 35q-110 0 -191 -110q-75 -101 -75 -214q0 -83 60 -229q-5 -29 -68 -56q-56 -24 -90 -24l-27 5q-30 31 -52 111
q-20 72 -20 123q0 257 137.5 402t394.5 145q105 0 181 -84t76 -189zM757 514q0 105 -73 168q-68 59 -175 59q-214 0 -334 -140q-113 -134 -113 -356q0 -44 15 -101t37 -94q67 20 103 38q-52 151 -52 222q0 136 88 250q94 123 226 123q74 0 129 -47q59 -50 59 -123
q0 -54 -41 -106q-44 -54 -98 -54q-10 0 -85 27l-41 -65q3 -19 57 -46t78 -27q104 0 165 86q55 77 55 186z" />
    <glyph glyph-name="dollar" unicode="$" horiz-adv-x="1349" 
d="M1391 580q0 -36 -32 -137l-26 -12q-105 24 -172 24q-117 0 -225 -65q-47 -28 -182 -138q-113 -92 -197 -127q-48 -19 -119 -30q-61 -8 -123 -17q-21 -86 -55 -86q-19 0 -72 16q-59 18 -59 30l29 65q-13 11 -61 29q-51 19 -71 32q-35 22 -35 49l61 98q43 0 127.5 -30.5
t130.5 -30.5q146 0 261 85q40 30 131 120q81 81 140 118q111 70 232 82q4 30 21 87q14 4 36 4q87 0 65 1q45 -3 53 -24l-5 -93q42 -6 85 -12q62 -13 62 -38zM1338 575q-5 3 -64 13q-69 12 -78 14q5 32 19 95q-32 6 -96 13q-1 -33 -24 -99l-41 -5q-109 -12 -186 -64
q-49 -33 -132 -117q-89 -90 -136 -125q-115 -85 -285 -85q-57 0 -127 19q-61 18 -122 37l-27 -60l161 -82q-3 -28 -29 -81l83 -17q5 9 17 45q9 30 21 42q5 5 97 18q103 15 135 26q80 27 157 86q12 9 124 108q74 65 133 95q100 50 225 50q39 0 156 -22z" />
    <glyph glyph-name="percent" unicode="%" 
d="M804 516q0 -123 -63 -214q-71 -103 -190 -103q-50 0 -114 32q-76 37 -76 82q0 17 39 68.5t56 53.5q41 -28 72 -28q36 0 62.5 35t26.5 72q0 52 -43.5 87t-95.5 35q-110 0 -191 -110q-75 -101 -75 -214q0 -83 60 -229q-5 -29 -68 -56q-56 -24 -90 -24l-27 5q-30 31 -52 111
q-20 72 -20 123q0 257 137.5 402t394.5 145q105 0 181 -84t76 -189zM757 514q0 105 -73 168q-68 59 -175 59q-214 0 -334 -140q-113 -134 -113 -356q0 -44 15 -101t37 -94q67 20 103 38q-52 151 -52 222q0 136 88 250q94 123 226 123q74 0 129 -47q59 -50 59 -123
q0 -54 -41 -106q-44 -54 -98 -54q-10 0 -85 27l-41 -65q3 -19 57 -46t78 -27q104 0 165 86q55 77 55 186z" />
    <glyph glyph-name="ampersand" unicode="&#x26;" 
d="M804 516q0 -123 -63 -214q-71 -103 -190 -103q-50 0 -114 32q-76 37 -76 82q0 17 39 68.5t56 53.5q41 -28 72 -28q36 0 62.5 35t26.5 72q0 52 -43.5 87t-95.5 35q-110 0 -191 -110q-75 -101 -75 -214q0 -83 60 -229q-5 -29 -68 -56q-56 -24 -90 -24l-27 5q-30 31 -52 111
q-20 72 -20 123q0 257 137.5 402t394.5 145q105 0 181 -84t76 -189zM757 514q0 105 -73 168q-68 59 -175 59q-214 0 -334 -140q-113 -134 -113 -356q0 -44 15 -101t37 -94q67 20 103 38q-52 151 -52 222q0 136 88 250q94 123 226 123q74 0 129 -47q59 -50 59 -123
q0 -54 -41 -106q-44 -54 -98 -54q-10 0 -85 27l-41 -65q3 -19 57 -46t78 -27q104 0 165 86q55 77 55 186z" />
    <glyph glyph-name="quotesingle" unicode="'" horiz-adv-x="306" 
d="M266 690q-4 -23 -14 -67q-49 -168 -103 -227q-77 13 -119 46q15 51 46 146q8 22 8.5 68.5t6.5 68.5q1 2 8 2q32 0 167 -37zM216 654q-4 10 -98 22q0 -32 -16 -122q-11 -40 -15 -52q-9 -28 -19 -43l63 -26q20 36 57 121q10 23 20 47.5t10 39.5q0 7 -2 13z" />
    <glyph glyph-name="parenleft" unicode="(" horiz-adv-x="795" 
d="M763 796l-2 -149q-15 -1 -107 -4q-54 -1 -95 -10q-137 -30 -213.5 -90t-138.5 -185q-11 -24 -22.5 -67.5t-11.5 -67.5q0 -30 25 -70q21 -31 43 -63q-3 -17 -54 -55q-34 -24 -68 -49q-49 29 -85 91.5t-36 118.5q0 117 97 277q91 149 194 222q151 107 424 107
q37 0 41.5 -2.5t8.5 -3.5zM727 690q0 25 -3 67q-217 -4 -341 -58q-156 -67 -244 -238l-66 -128q-33 -74 -33 -139q0 -41 25 -83q13 -22 54 -71l68 50q-21 24 -39.5 65t-18.5 68q0 17 11 69q35 152 204 300q65 56 182 78q49 9 201 20z" />
    <glyph glyph-name="parenright" unicode=")" horiz-adv-x="706" 
d="M641 424q0 -44 -24 -99q-88 -203 -437 -308q-77 -23 -114 -23q-20 0 -25 9q-8 17 -24 72q-15 52 -15 58q0 20 17 25q49 13 147 45q12 4 71 18q41 9 65 28q21 16 39 28q116 78 116 184q0 33 -19 70q-18 33 -37 66q-11 21 -74 62q-42 27 -42 40q0 3 22 44q25 47 30 57.5
t22 10.5q20 0 87 -28q93 -39 149 -163q46 -101 46 -196zM598 423q0 82 -61 195q-25 46 -60 84q-43 46 -83 57l-24 7q-17 -25 -39 -62q29 -10 62 -39q29 -27 45 -52q60 -99 60 -153q0 -81 -46 -143.5t-169 -116.5q-97 -42 -213 -70q-10 -2 -22 -7q7 -38 26 -86q54 7 99 22
q134 47 214 92q145 83 190 189q21 47 21 83z" />
    <glyph glyph-name="asterisk" unicode="*" 
d="M804 516q0 -123 -63 -214q-71 -103 -190 -103q-50 0 -114 32q-76 37 -76 82q0 17 39 68.5t56 53.5q41 -28 72 -28q36 0 62.5 35t26.5 72q0 52 -43.5 87t-95.5 35q-110 0 -191 -110q-75 -101 -75 -214q0 -83 60 -229q-5 -29 -68 -56q-56 -24 -90 -24l-27 5q-30 31 -52 111
q-20 72 -20 123q0 257 137.5 402t394.5 145q105 0 181 -84t76 -189zM757 514q0 105 -73 168q-68 59 -175 59q-214 0 -334 -140q-113 -134 -113 -356q0 -44 15 -101t37 -94q67 20 103 38q-52 151 -52 222q0 136 88 250q94 123 226 123q74 0 129 -47q59 -50 59 -123
q0 -54 -41 -106q-44 -54 -98 -54q-10 0 -85 27l-41 -65q3 -19 57 -46t78 -27q104 0 165 86q55 77 55 186z" />
    <glyph glyph-name="plus" unicode="+" horiz-adv-x="1019" 
d="M988 351q0 -40 -39 -40q-6 0 -23 2q-14 1 -22 0q-257 -15 -354 -14q-1 -31 -5 -98q-3 -60 -3 -94q0 -33 2 -63l-29 -22q-109 -7 -133 -7l-11 18q12 51 11 135q-2 105 1 135q-36 0 -121 6q-78 6 -121 6q-55 0 -100 -7l-21 29q-7 109 -7 133l18 11q162 -2 182 -2
q103 -3 181 -10v3q0 52 -14 149.5t-14 139.5l17 20q45 9 118 9q40 0 40 -37q0 -5 -2 -23q-1 -16 0 -24q15 -154 14 -248h15q67 -1 197.5 13.5t193.5 14.5l20 -17q9 -45 9 -118zM952 355l-8 89q-71 0 -214 -11q-146 -12 -216 -12q0 17 2 70q2 43 2 70q0 28 -21 193l-89 -8
q0 -41 11.5 -134t11.5 -140l-5 -48l-378 20l7 -97q14 0 45 2.5t46 2.5q51 0 139 -5q102 -7 140 -8q-6 -58 -17 -289l97 7q0 15 -2.5 45.5t-2.5 45.5q0 35 6 95q8 72 9 95q17 0 71 -2q44 -2 71 -2q60 0 147 8q74 6 148 13z" />
    <glyph glyph-name="comma" unicode="," horiz-adv-x="306" 
d="M266 94q-4 -23 -14 -67q-49 -168 -103 -227q-77 13 -119 46q15 51 46 146q8 22 8.5 68.5t6.5 68.5q1 2 8 2q32 0 167 -37zM216 58q-4 10 -98 22q0 -32 -16 -122q-11 -40 -15 -52q-9 -28 -19 -43l63 -26q20 36 57 121q10 23 20 47.5t10 39.5q0 7 -2 13z" />
    <glyph glyph-name="hyphen" unicode="-" horiz-adv-x="1019" 
d="M988 351q0 -26 -15 -35q-9 -5 -33 -5q-3 0 -17.5 1t-18.5 1q-3 0 -127.5 -7.5t-127.5 -7.5q-36 0 -279 5q-46 1 -139.5 7t-90.5 6q-3 0 -49.5 -4t-49.5 -4q-16 0 -21 29q-1 13 -2 28q-5 59 -5 105q9 11 18 11q62 0 267 -5q40 -1 134 -10q87 -8 136 -8q104 0 174 5
q21 2 109 14q69 9 108 9q5 0 12 -6t8 -11q9 -43 9 -118zM952 355q0 27 -8 89q-35 0 -98 -7q-82 -9 -98 -11q-44 -1 -117 -3q-38 -2 -63 -2q-71 0 -215 9t-221 9q9 0 -84 5q1 -16 7 -97q15 0 45.5 2.5t45.5 2.5q-2 0 95 -6q102 -6 152 -7l264 -5q28 0 158 8q137 9 137 13z
" />
    <glyph glyph-name="hyphen" unicode="&#x2010;" horiz-adv-x="1019" 
d="M988 351q0 -26 -15 -35q-9 -5 -33 -5q-3 0 -17.5 1t-18.5 1q-3 0 -127.5 -7.5t-127.5 -7.5q-36 0 -279 5q-46 1 -139.5 7t-90.5 6q-3 0 -49.5 -4t-49.5 -4q-16 0 -21 29q-1 13 -2 28q-5 59 -5 105q9 11 18 11q62 0 267 -5q40 -1 134 -10q87 -8 136 -8q104 0 174 5
q21 2 109 14q69 9 108 9q5 0 12 -6t8 -11q9 -43 9 -118zM952 355q0 27 -8 89q-35 0 -98 -7q-82 -9 -98 -11q-44 -1 -117 -3q-38 -2 -63 -2q-71 0 -215 9t-221 9q9 0 -84 5q1 -16 7 -97q15 0 45.5 2.5t45.5 2.5q-2 0 95 -6q102 -6 152 -7l264 -5q28 0 158 8q137 9 137 13z
" />
    <glyph glyph-name="hyphen" unicode="&#x2010;" horiz-adv-x="1019" 
d="M988 351q0 -26 -15 -35q-9 -5 -33 -5q-3 0 -17.5 1t-18.5 1q-3 0 -127.5 -7.5t-127.5 -7.5q-36 0 -279 5q-46 1 -139.5 7t-90.5 6q-3 0 -49.5 -4t-49.5 -4q-16 0 -21 29q-1 13 -2 28q-5 59 -5 105q9 11 18 11q62 0 267 -5q40 -1 134 -10q87 -8 136 -8q104 0 174 5
q21 2 109 14q69 9 108 9q5 0 12 -6t8 -11q9 -43 9 -118zM952 355q0 27 -8 89q-35 0 -98 -7q-82 -9 -98 -11q-44 -1 -117 -3q-38 -2 -63 -2q-71 0 -215 9t-221 9q9 0 -84 5q1 -16 7 -97q15 0 45.5 2.5t45.5 2.5q-2 0 95 -6q102 -6 152 -7l264 -5q28 0 158 8q137 9 137 13z
" />
    <glyph glyph-name="period" unicode="." horiz-adv-x="285" 
d="M235 118q0 -36 -38.5 -68t-70.5 -32q-37 0 -63 30q-24 27 -24 61q0 37 42 68q39 30 80 30q28 0 51 -30.5t23 -58.5zM197 118q0 8 -13.5 27t-27.5 19q-22 0 -47.5 -18.5t-25.5 -36.5q0 -16 12 -33q14 -20 36 -20q11 0 38.5 26.5t27.5 35.5z" />
    <glyph glyph-name="slash" unicode="/" horiz-adv-x="838" 
d="M822 689q0 -13 -26 -42q-12 -13 -35 -41q-23 -32 -38 -46q-103 -98 -217 -212q-33 -36 -103 -104q-78 -70 -170 -136q-19 -13 -82 -52q-67 -40 -73 -40q-16 0 -33 23q-4 12 -14 35q-7 12 -14.5 25.5t-7.5 24.5q0 20 23 36l40 22q15 11 46 32q100 63 217 186l192 214
q76 82 90 95q71 70 98 70q14 0 97 -71q10 -7 10 -19zM762 675l-36 32q-11 10 -24 20q-7 0 -139 -141q-15 -16 -146 -161q-20 -23 -56 -61q-52 -49 -103 -99q-60 -54 -115 -84q-21 -15 -66 -40q-18 -6 -18 -10q2 -3 15 -27l15 -29q140 83 233 163q20 14 56 45l156 152
q17 18 117 117q72 71 111 123z" />
    <glyph glyph-name="zero" unicode="0" horiz-adv-x="1257" 
d="M1226 375q0 -146 -163 -276q-128 -101 -399 -101h-174q-160 0 -292 63q-167 80 -165 222v7q1 106 61.5 214t150.5 162q95 56 250 92q142 32 266 32q118 0 240 -44q107 -38 169 -148q56 -100 56 -223zM1172 378q0 29 -9 85q-10 60 -19 81q-45 96 -170 151q-109 47 -230 47
q-245 0 -436 -107q-231 -129 -231 -355q0 -40 22 -84q23 -48 135 -99q106 -49 166 -49h260q175 0 276 39q86 33 158 116q78 90 78 175zM1074 435q0 -11 -19 -72q-48 -147 -226 -205q-121 -38 -322 -38q-127 0 -209 30q-119 45 -119 150q0 35 36 125q57 142 231 196
q118 37 320 37q19 0 76 -15q50 -14 77 -24q155 -58 155 -184zM1017 435q0 58 -30 88q-24 25 -84 45q-76 26 -104 31q-39 8 -106 8q-158 0 -256 -38q-127 -49 -178 -168q-30 -69 -30 -101q0 -82 106 -112q61 -18 176 -18q181 0 284 30q161 46 205 169q17 46 17 66z" />
    <glyph glyph-name="one" unicode="1" horiz-adv-x="1271" 
d="M1241 158q0 -65 -16 -69q-38 -8 -54 -8h-186q-10 0 -85 -7q-84 -9 -124 -16q-187 -31 -171 -31q-36 0 -51 33q-8 18 -13 64q17 11 169 96q0 9 -17 16q-23 9 -26 12q-80 73 -252 224q-102 87 -106 87q-7 0 -71 -42q-10 -7 -65 -28q-62 -23 -80 -23q-29 0 -52 55
q-18 44 -18 63q0 12 28 22q19 5 38 11q47 18 172 124q15 12 35 12q7 0 78 -50q79 -54 158 -123q121 -105 137 -117q87 -71 216 -162q37 -28 93 -65q10 -4 46 -4h150q51 0 62 -17q5 -9 5 -57zM1197 125v63q-15 -3 -169 1q-33 1 -42 2q-25 3 -36 13q-36 30 -159 120
q-48 33 -140 103q-100 90 -305 258q-3 3 -30 25q-17 14 -22 14q-4 0 -28 -22q-29 -27 -34 -31q-53 -41 -82 -57q-19 -11 -91 -42q12 -34 30 -67q46 13 62 18q37 12 62 26q14 9 52 37q31 23 35 23q15 0 33 -15q73 -61 194 -163q127 -111 241 -206q17 -14 17 -23
q0 -15 -110 -58q-41 -15 -91 -46q4 -12 11 -35q35 0 130 21q108 23 141 27q48 6 126 13q197 4 205 1z" />
    <glyph glyph-name="two" unicode="2" horiz-adv-x="1601" 
d="M1568 221q0 -120 -26 -125q-24 0 -72 -3q-70 -5 -212 -23q-57 -11 -108 -32q-90 -39 -92 -39q-36 0 -160 237q-84 161 -144 228q-93 103 -209 103q-4 0 -26 -4q-25 -6 -34 -7q-49 -6 -87 -26q-48 -26 -120 -76q-3 -3 -78 -75q-63 -60 -81 -60q-15 0 -51.5 45t-36.5 57
q0 24 10 34q107 109 203 165q28 21 88 58q165 81 275 81q73 0 144 -50q23 -16 60 -56q28 -31 57 -62q64 -67 117 -149q41 -70 83 -140q13 -21 46 -67q211 56 324 56q23 0 96 -5q20 -2 28 -16q6 -10 6 -49zM1519 238q-17 -1 -47 2q-33 3 -32 3q-42 0 -183 -25
q-42 -10 -84 -19q-66 -14 -79 -11q-12 9 -30 26q-57 97 -178 284q-21 21 -50 52q-122 161 -229 161q-113 0 -274 -91q-142 -81 -258 -195q17 -20 46 -58q229 244 428 244q128 0 224 -99q64 -65 148 -222q95 -177 140 -235q222 85 454 89q-1 37 4 94z" />
    <glyph glyph-name="three" unicode="3" horiz-adv-x="1267" 
d="M1245 189q0 -49 -26 -102q-8 -15 -44 -60q-42 -52 -57 -52t-61 25q-49 27 -49 43q0 10 16 26q21 22 25 27q29 44 29 86q0 70 -111 104q-73 23 -145 23q-83 0 -153.5 -19t-62.5 -19q-20 0 -84 50q-5 25 1 67q5 34 -10 82q-26 79 -64 101q-33 22 -66 43q-38 22 -80 22
q-39 0 -90 -35q-18 -12 -80 -65q-41 -35 -57 -35t-48 52q-29 48 -29 57q0 24 46 58q85 63 148.5 88.5t137.5 25.5q12 0 43 -7t38 -10q38 -15 77 -30q54 -26 97.5 -82.5t54.5 -104.5q16 -68 28 -94q100 10 136 10q240 0 379 -126q21 -19 41 -69.5t20 -79.5zM1203 186
q0 25 -15 65.5t-32 54.5q-78 71 -173 97q-70 19 -178 19q-4 0 -66 -4.5t-66 -4.5t-17.5 -7t-17.5 -7q-2 0 -2 1q-5 26 -13 58q-11 36 -33 96q-9 16 -24 48q-19 45 -119 99q-73 40 -131 40q-101 0 -219 -83q-63 -45 -63 -53q0 -9 47 -63q126 129 226 129q40 0 79 -20l66 -42
q46 -26 80 -81q29 -47 33 -85q3 -33 1 -60q-2 -34 -2 -41q43 -26 42 -26q2 0 51 14t71 16q51 5 94 5q87 0 168 -27q129 -43 129 -137q0 -71 -55 -141q21 -8 50 -26q89 95 89 166z" />
    <glyph glyph-name="four" unicode="4" horiz-adv-x="1392" 
d="M1354 694q3 -5 -57 -174.5t-82 -223.5q-33 -77 -46 -122q-12 -49 -23 -99q-1 -4 -1 -33q0 -18 -13 -29q-24 2 -88 8q-24 2 -47 4q-34 5 -48 24q-2 27 14 131q18 110 18 134q0 12 -2 16q-5 11 -461 11q-107 3 -134 5q-96 9 -197 40q-26 8 -60 30q-43 28 -63 58
q-14 21 -49.5 106t-35.5 99q0 26 69 51q56 20 76 20q39 0 56 -46q10 -34 20 -69q7 -17 33 -52q31 -33 181 -49q67 -8 282 -19q72 -4 167 -3q71 0 197 7q38 77 99 193l16 42q7 17 35 17q31 0 61 -16q67 -35 83 -61zM1293 676q-11 5 -46 25q-24 13 -30 13q-14 0 -76.5 -123.5
t-69.5 -126.5q-128 -3 -200 -3q-127 0 -186 3q-68 7 -225 21q-51 4 -102 9q-59 6 -98 19q-43 13 -68 34q-32 24 -51 77q-12 40 -24 79q-53 -16 -86 -35q6 -45 40 -110q37 -71 73 -94q43 -27 116 -40q51 -6 102 -13q70 -10 191 -22q189 -10 317 -10q76 0 128 3.5t46 3.5
q12 0 12 -15q0 -8 -5 -27q-6 -22 -7 -31q-8 -46 -25 -133q-16 -75 -16 -79v-31q10 0 39 -9.5t40 -9.5q13 0 16 10q5 16 21 106q13 71 47 153q43 130 98 290q12 23 29 66z" />
    <glyph glyph-name="five" unicode="5" horiz-adv-x="1294" 
d="M1257 106q0 -84 2 -36q-1 -27 -12 -36q-8 -5 -67.5 -15t-71.5 -10q-21 0 -30 7q-14 11 -17 45q-6 65 -59 134.5t-133 118.5q-69 43 -145 54q-45 7 -158 5q-88 -1 -225 -50t-144 -49q-13 0 -38 7t-28 12q-25 37 -74 118q-55 91 -55 99q0 25 100 111q77 67 113 90
q109 73 125 73t47.5 -34t27.5 -43q-14 -27 -87 -82q-64 -49 -85 -68q-54 -49 -54 -82q0 -10 20 -23q17 -12 23 -12q5 0 52 20q56 24 80 32q101 33 134 38q29 5 134 5q31 0 164 -28q219 -46 327 -126q134 -101 134 -275zM1207 72q4 46 0 72q-3 20 -12 45q-8 19 -15 38
q-10 31 -45 72q-31 38 -53 52q-89 56 -231 95t-256 39q-62 0 -114.5 -9t-112.5 -30q-23 -8 -82 -34q-49 -22 -54 -22q-19 0 -52 27q-37 29 -37 56q0 53 91 135q75 67 133 94q-2 2 -16 21q-9 11 -15 11q-13 0 -95 -61q-48 -37 -97 -74q-19 -13 -55 -46q-45 -41 -45 -51
q0 -6 46 -76q60 -89 75 -114q27 -3 39 0q36 10 113.5 41.5t121.5 43.5q74 21 141 22q136 1 200 -12q96 -20 175 -85q68 -56 104 -117q34 -57 54 -146q61 13 94 13z" />
    <glyph glyph-name="six" unicode="6" horiz-adv-x="1466" 
d="M1417 327q0 -186 -168 -290q-13 -8 -69 -23q-106 -28 -168 -28q-87 0 -247 33q-124 25 -277 99q-307 148 -397 343q-53 113 -53 172q0 13 2 25q115 59 124 59q18 0 30 -19q72 -116 104 -173q132 -234 487 -315q15 -4 94 -8q68 -3 86 -3q50 0 113 18q97 29 97 85
q0 45 -65 69q-43 15 -81 15q-65 0 -113 -27q-20 -11 -89 -69q-21 -17 -35 -17q-10 0 -43 12q-37 14 -57.5 28t-20.5 41q0 13 14 54q17 50 37 77q12 18 46 44.5t61 37.5q38 16 109 20q129 7 150 7q92 0 158 -32q78 -38 149 -131q22 -28 22 -104zM1363 327q0 60 -18 82
q-32 41 -77 74q-48 36 -87 45q-52 12 -122 12q-59 0 -171 -12q-53 -6 -104 -65q-47 -55 -54 -103q34 -23 57 -23q-3 0 34 27q42 31 86 50q63 27 125 27q63 0 121 -28q81 -40 81 -116q0 -71 -99 -116q-80 -37 -160 -37q-154 0 -204 11q-99 22 -266 99q-109 50 -210 165
t-125 216q-4 16 -17 29q-25 -11 -71 -32q11 -45 19 -69q61 -198 294 -339q171 -105 388 -156q44 -11 88.5 -21.5t88.5 -10.5q111 0 178 18q89 25 157 93t68 180z" />
    <glyph glyph-name="seven" unicode="7" horiz-adv-x="1472" 
d="M1454 175q0 -23 -18 -80q-21 -62 -36 -67q-4 -2 -14 -2q-32 0 -94 24q-47 18 -94 37q-69 27 -110 48q-161 84 -400 296q-84 74 -93 74q-55 0 -185 -48q-93 -38 -186 -75q-60 -23 -74 -23q-6 0 -17 6q-7 5 -15 10q-15 7 -56.5 51t-41.5 56q0 10 12.5 24t25 20t103.5 44
q391 158 438 158q18 0 40 8t31 8q18 0 40 -29q15 -21 30 -43q27 -29 77 -90q115 -151 339 -271q67 -36 183 -84q4 -2 61 -15q43 -10 52 -23q2 -4 2 -14zM1388 156q-113 24 -164 46q-97 42 -204 113q-91 60 -148 116q-49 47 -123 142q-30 37 -87 113q-106 -19 -282 -90
q-101 -41 -304 -118q16 -18 32 -35q20 -21 40 -21q27 0 203 73t247 73q19 0 28 -7q5 -3 69 -61q59 -55 179 -161q76 -62 194 -127t210 -96q23 -8 48.5 -17.5t46.5 -10.5q7 27 15 68z" />
    <glyph glyph-name="eight" unicode="8" horiz-adv-x="1060" 
d="M1023 243q-3 -109 -110 -179q-95 -61 -209 -61q-129 0 -204.5 70.5t-75.5 190.5q0 27 4 56q-50 2 -126 2q-134 0 -204 50q-89 64 -89 216q0 75 105 136q94 54 175 54q138 0 183 -97q14 -31 32 -86q19 -63 28 -84q112 34 221 39q122 6 202 -100q71 -93 68 -207zM980 286
q0 84 -79 152q-75 65 -159 65q-41 0 -115 -19q-110 -27 -116 -28q-19 17 -35 96q-18 86 -45 123q-44 61 -138 61q-85 0 -155 -36q-87 -44 -87 -118q0 -91 35 -134q71 -89 223 -89q38 0 155 8q2 -46 2 -82q0 -116 62 -179t176 -63q115 0 193 63q83 68 83 180zM903 257
q0 -63 -47 -113.5t-109 -50.5q-132 0 -185 80q-42 65 -42 202q135 41 211 41q64 0 118 -48t54 -111zM451 445q0 -30 -57 -30q-15 0 -53 -4q-30 -2 -54 0q-13 1 -35.5 6t-29.5 5q-42 0 -76.5 38.5t-34.5 83.5q0 61 51 98q46 35 111 35q68 0 103 -37q28 -29 46 -99
q1 -2 17 -50q12 -37 12 -46zM860 257q0 30 -34.5 67.5t-63.5 43t-61 5.5q-37 0 -134 -22q-2 -214 152 -214q54 0 95 32q46 35 46 88zM403 474l-10 31q-37 121 -103 133q-14 3 -27 3q-69 0 -98 -51q-16 -27 -14 -58q2 -45 60 -66q41 -16 94 -16q98 0 98 24z" />
    <glyph glyph-name="nine" unicode="9" horiz-adv-x="1502" 
d="M1466 100q-32 -18 -142 -36q-99 -16 -151 -16q-193 0 -345 119q-16 12 -219 220q-116 119 -221 119q-42 0 -113.5 -68t-71.5 -108q0 -19 18.5 -31.5t38.5 -12.5q52 0 110 26q36 16 85 48q41 28 48 28q24 -6 49 -49l36 -66q-61 -71 -159 -117t-193 -46q-93 0 -160 59.5
t-67 151.5q0 131 120 240q116 106 250 106q140 0 290 -116q131 -108 262 -215q165 -116 340 -116q22 0 83 11t84 11q20 0 26 -63q4 -40 2 -79zM1427 140l-16 54q-28 0 -73 -9t-67 -9q-185 0 -356 117q-132 108 -264 217q-148 116 -278 116q-113 0 -217 -95
q-107 -97 -107 -208q0 -63 45 -116t107 -53q113 0 177 28q76 42 153 84q2 21 -10 36q-16 21 -19 31q-41 -37 -112.5 -64t-127.5 -27q-43 0 -71 20q-32 23 -32 64q0 69 88 146.5t159 77.5q113 0 224 -118q199 -210 211 -219q148 -118 351 -118q46 0 129.5 16t105.5 29z" />
    <glyph glyph-name="colon" unicode=":" horiz-adv-x="285" 
d="M235 118q0 -36 -38.5 -68t-70.5 -32q-37 0 -63 30q-24 27 -24 61q0 37 42 68q39 30 80 30q28 0 51 -30.5t23 -58.5zM197 118q0 8 -13.5 27t-27.5 19q-22 0 -47.5 -18.5t-25.5 -36.5q0 -16 12 -33q14 -20 36 -20q11 0 38.5 26.5t27.5 35.5zM55 433q-4 10 -4 22q0 32 24 66
t48 43q14 5 27 5q33 0 61 -25t28 -57q0 -35 -33 -75t-67 -40q-25 0 -50.5 19.5t-33.5 41.5zM91 446q2 -6 18 -18t29 -12q18 0 38 25.5t20 43.5q0 16 -17 30t-33 14q-7 0 -14 -2q-11 -4 -27.5 -38t-13.5 -43z" />
    <glyph glyph-name="semicolon" unicode=";" horiz-adv-x="306" 
d="M266 94q-4 -23 -14 -67q-49 -168 -103 -227q-77 13 -119 46q15 51 46 146q8 22 8.5 68.5t6.5 68.5q1 2 8 2q32 0 167 -37zM216 58q-4 10 -98 22q0 -32 -16 -122q-11 -40 -15 -52q-9 -28 -19 -43l63 -26q20 36 57 121q10 23 20 47.5t10 39.5q0 7 -2 13zM55 433
q-4 10 -4 22q0 32 24 66t48 43q14 5 27 5q33 0 61 -25t28 -57q0 -35 -33 -75t-67 -40q-25 0 -50.5 19.5t-33.5 41.5zM91 446q2 -6 18 -18t29 -12q18 0 38 25.5t20 43.5q0 16 -17 30t-33 14q-7 0 -14 -2q-11 -4 -27.5 -38t-13.5 -43z" />
    <glyph glyph-name="less" unicode="&#x3c;" horiz-adv-x="795" 
d="M763 796l-2 -149q-15 -1 -107 -4q-54 -1 -95 -10q-137 -30 -213.5 -90t-138.5 -185q-11 -24 -22.5 -67.5t-11.5 -67.5q0 -30 25 -70q21 -31 43 -63q-3 -17 -54 -55q-34 -24 -68 -49q-49 29 -85 91.5t-36 118.5q0 117 97 277q91 149 194 222q151 107 424 107
q37 0 41.5 -2.5t8.5 -3.5zM727 690q0 25 -3 67q-217 -4 -341 -58q-156 -67 -244 -238l-66 -128q-33 -74 -33 -139q0 -41 25 -83q13 -22 54 -71l68 50q-21 24 -39.5 65t-18.5 68q0 17 11 69q35 152 204 300q65 56 182 78q49 9 201 20z" />
    <glyph glyph-name="equal" unicode="=" horiz-adv-x="1019" 
d="M988 529q0 -27 -15 -35q-9 -6 -33 -6q-3 0 -17.5 1.5t-18.5 1.5q-3 0 -127.5 -8t-127.5 -8q-36 0 -279 6q-46 1 -139.5 6.5t-90.5 5.5q-3 0 -49.5 -3.5t-49.5 -3.5q-16 0 -21 28l-2 28q-5 59 -5 106q9 11 18 11q62 0 267 -6q40 -1 134 -10q87 -8 136 -8q104 0 174 6
q21 2 109 14q69 9 108 9q5 0 12 -6t8 -11q9 -43 9 -118zM988 205q0 -26 -15 -35q-9 -5 -33 -5q-3 0 -17.5 1.5t-18.5 1.5q-3 0 -127.5 -8t-127.5 -8q-36 0 -279 5q-46 1 -139.5 7t-90.5 6q-3 0 -49.5 -4t-49.5 -4q-16 0 -21 29q-1 13 -2 28q-5 59 -5 105q9 11 18 11
q62 0 267 -5q40 -1 134 -10q87 -8 136 -8q104 0 174 6q21 2 109 13q69 9 108 9q5 0 12 -6t8 -11q9 -43 9 -118zM952 532q0 28 -8 90q-35 0 -98 -7q-82 -10 -98 -11q-44 -1 -117 -4q-38 -1 -63 -1q-71 0 -215 9t-221 9q9 0 -84 4q1 -16 7 -96q15 0 45.5 2.5t45.5 2.5
q-2 0 95 -6q102 -6 152 -7l264 -5q28 0 158 8q137 9 137 12zM952 209q0 27 -8 90q-35 0 -98 -8q-82 -9 -98 -10q-44 -1 -117 -4q-38 -1 -63 -1q-71 0 -215 9t-221 9q9 0 -84 4q1 -16 7 -96q15 0 45.5 2.5t45.5 2.5q-2 0 95 -6q102 -6 152 -7l264 -5q28 0 158 8q137 8 137 12
z" />
    <glyph glyph-name="greater" unicode="&#x3e;" horiz-adv-x="706" 
d="M641 424q0 -44 -24 -99q-88 -203 -437 -308q-77 -23 -114 -23q-20 0 -25 9q-8 17 -24 72q-15 52 -15 58q0 20 17 25q49 13 147 45q12 4 71 18q41 9 65 28q21 16 39 28q116 78 116 184q0 33 -19 70q-18 33 -37 66q-11 21 -74 62q-42 27 -42 40q0 3 22 44q25 47 30 57.5
t22 10.5q20 0 87 -28q93 -39 149 -163q46 -101 46 -196zM598 423q0 82 -61 195q-25 46 -60 84q-43 46 -83 57l-24 7q-17 -25 -39 -62q29 -10 62 -39q29 -27 45 -52q60 -99 60 -153q0 -81 -46 -143.5t-169 -116.5q-97 -42 -213 -70q-10 -2 -22 -7q7 -38 26 -86q54 7 99 22
q134 47 214 92q145 83 190 189q21 47 21 83z" />
    <glyph glyph-name="question" unicode="?" horiz-adv-x="1258" 
d="M1235 479q0 -93 -2 -111q-9 -86 -49 -133q-14 -17 -74 -60q-115 -82 -191 -100q-18 -4 -60 -4q-66 0 -104 11q-1 0 -57 22q-28 11 -65 11q-38 0 -150 -26q-64 -15 -129 -30q-11 -2 -42 -11q-27 -8 -32 -8t-8.5 3t-6.5 5q-10 23 -30 78t-20 60q0 8 9 18t16 11q29 4 95 16
q50 15 150 41q120 26 129 26q16 0 93 -19q32 -10 65 -19q40 -10 72 -10q26 0 61 4q22 3 60.5 33.5t64.5 70.5q38 60 38 135q0 20 -19 39t-61 34q-17 5 -51 16q-8 3 -8 18q0 14 31 51q28 32 44.5 44t34.5 12q15 0 66 -27q73 -38 104 -90q26 -45 26 -111zM182 79
q0 -39 -32 -60q-25 -16 -60 -16q-33 0 -61 19q-31 22 -31 55q0 42 25 69t64 27q44 0 69.5 -27t25.5 -67zM1191 482q0 16 -7.5 48.5t-15 47.5t-61 50t-68.5 35q-11 0 -29 -21q-12 -15 -23 -29q58 -23 83 -40q46 -32 46 -77q0 -118 -59 -191q-35 -44 -93 -72.5t-110 -30.5
q-32 -1 -132.5 25.5t-110.5 26.5q-23 0 -113 -23q-45 -14 -149 -41q-46 -10 -90 -15q13 -37 29 -91q22 0 55 10q28 8 55 16q187 46 238 46q33 0 57 -8q1 0 55 -22q4 -2 40 -7q45 -8 71 -8q61 0 120 30q38 19 104 68q20 15 39.5 29.5t34.5 33.5q36 49 36 142q0 17 -1 40
t-1 28zM141 83q0 19 -13.5 32t-35.5 13q-17 0 -32 -8q-18 -10 -18 -27q0 -14 15 -27q17 -16 37 -16q9 0 18 4q29 10 29 29z" />
    <glyph glyph-name="at" unicode="@" 
d="M804 516q0 -123 -63 -214q-71 -103 -190 -103q-50 0 -114 32q-76 37 -76 82q0 17 39 68.5t56 53.5q41 -28 72 -28q36 0 62.5 35t26.5 72q0 52 -43.5 87t-95.5 35q-110 0 -191 -110q-75 -101 -75 -214q0 -83 60 -229q-5 -29 -68 -56q-56 -24 -90 -24l-27 5q-30 31 -52 111
q-20 72 -20 123q0 257 137.5 402t394.5 145q105 0 181 -84t76 -189zM757 514q0 105 -73 168q-68 59 -175 59q-214 0 -334 -140q-113 -134 -113 -356q0 -44 15 -101t37 -94q67 20 103 38q-52 151 -52 222q0 136 88 250q94 123 226 123q74 0 129 -47q59 -50 59 -123
q0 -54 -41 -106q-44 -54 -98 -54q-10 0 -85 27l-41 -65q3 -19 57 -46t78 -27q104 0 165 86q55 77 55 186z" />
    <glyph glyph-name="A" unicode="A" horiz-adv-x="1599" 
d="M1560 218q0 -41 -117 -98l-76 48q-63 -58 -223 -114q-155 -56 -244 -56q-121 0 -215 56q-111 65 -111 177q0 85 76 194q70 101 150 149q-82 50 -222 50q-143 0 -250 -47q-101 -44 -207 -147q-19 -1 -46 4l-53 86q6 66 126 133q98 55 244 95q131 37 203 37q124 0 356 -90
q243 -93 411 -215q198 -142 198 -262zM1503 229q-4 87 -181 215q-160 115 -374 205q-219 91 -340 91q-110 0 -304 -62q-227 -73 -238 -153l42 -57q78 102 217 154q121 45 263 45q209 0 273 -80q-121 -119 -147 -150q-85 -103 -85 -183q0 -101 86 -159q75 -51 183 -51
q87 0 235 64q123 52 218 116q52 -14 96 -47zM1284 289q0 -46 -162 -109q-145 -56 -199 -56h-63q-58 0 -97 35q-42 36 -42 94q0 54 94.5 164.5t142.5 110.5q50 0 188 -98t138 -141zM1221 296q-210 176 -265 176q-25 0 -103.5 -95.5t-78.5 -126.5q0 -39 41 -60q33 -18 76 -18
q68 0 178 37q123 41 152 87z" />
    <glyph glyph-name="B" unicode="B" horiz-adv-x="1554" 
d="M1545 304q-18 -121 -105.5 -205t-199.5 -94q-209 -19 -832 340q-315 181 -435 298q15 21 73 90q61 73 66 74q6 2 40 -28q53 -45 62 -53q253 -194 419 -292q211 -124 272 -156q133 -69 228 -86q52 -9 63 -9q21 0 49 8q93 28 104 142q7 76 -113 130q-90 40 -143 40
q-70 0 -113 -45q-27 -28 -49 -83q-18 -45 -26 -45t-59 28q-25 13 -50.5 27t-24.5 21q21 123 122 208q93 79 191 79q76 0 182 -45q117 -49 192 -124q89 -88 89 -188q0 -16 -2 -32zM1496 299q4 19 4 38q0 87 -81 165q-68 67 -174 111q-96 40 -163 40q-89 0 -176.5 -77.5
t-91.5 -162.5q31 -19 79 -47q33 183 188 183q84 0 188 -54q130 -67 125 -165q-7 -131 -95 -170q-44 -19 -88 -19q-31 0 -149 28q-41 10 -152 58q-117 51 -217 111q-53 32 -205 134q-283 188 -371 282q-35 -31 -75 -92q19 -23 45 -43q34 -26 38 -30q44 -41 181 -126
q134 -83 275 -157q291 -152 333 -172q176 -81 282 -81q109 0 193 68t107 178z" />
    <glyph glyph-name="C" unicode="C" horiz-adv-x="1672" 
d="M1632 329q0 -22 -120 -102q-100 -67 -136 -84q-96 -45 -301 -100q-210 -55 -293 -55q-204 0 -383 82q-226 103 -226 284q0 85 31 176q35 102 96 168q99 109 242 109q34 0 88 -18q68 -23 73 -53q3 -19 -32 -77t-52 -58q4 0 -31.5 4.5t-64.5 4.5q-1 0 -52 -17
q-60 -21 -75 -49q-44 -82 -44 -155q0 -72 50 -120q43 -42 140.5 -76.5t222.5 -31.5q90 2 229 39q87 24 173 49q82 19 122 40.5t80 43.5q6 4 72 62q57 50 78 50q19 0 66 -48.5t47 -67.5zM1584 336l-65 65q-60 -49 -93 -73q-58 -41 -83 -57q-48 -31 -80 -42
q-200 -68 -400 -104q-30 -6 -98 -15q-137 -9 -305 57q-31 13 -70.5 44t-57 55.5t-22.5 75.5q-1 16 -1 83q0 82 63 153q68 76 158 76q43 0 77 -17q51 86 48 93q-9 28 -119 28q-136 0 -229 -123q-86 -114 -86 -255q0 -43 12 -94q13 -58 33 -85q62 -83 237 -133
q144 -41 274 -41q87 0 258 43q177 45 315 106q75 33 138 80z" />
    <glyph glyph-name="D" unicode="D" horiz-adv-x="1675" 
d="M1598 768q-5 -17 -20 -34q-21 -22 -62 -66q-54 -58 -180 -186q-131 -123 -192 -172q-94 -76 -212 -144q-156 -90 -322 -133q-92 -23 -224 -37q-12 -2 -26 -2q-64 0 -136 22q-76 24 -109 56q-55 55 -74 161q-8 42 -8 78q0 96 66 194q106 159 313 159q73 0 154 -20
q88 -23 189 -105q85 -69 97 -103q-3 -13 -80.5 -51t-89.5 -35q-19 29 -70 62q-78 50 -164 50q-49 0 -99 -17q-136 -48 -136 -154q0 -71 71 -104q47 -22 103 -22q91 0 298 83q102 42 180 87q63 38 166 113q107 77 255 236q146 156 152 161q23 15 48 7q17 -5 60 -37.5
t52 -46.5zM1536 757q-10 3 -31.5 25.5t-32.5 25.5q-10 -14 -38 -39q-43 -38 -51 -46q-43 -42 -139 -145q-77 -82 -103 -102q-182 -143 -215 -165q-108 -74 -236 -121q-79 -28 -174 -49q-86 -19 -124 -19q-83 0 -143 29q-90 44 -82 146q11 135 174 197q51 19 105 19
q88 0 174 -47q67 -38 85 -69q6 6 42 20.5t40 24.5q-19 34 -87 83q-78 58 -152 78q-65 17 -109 17q-30 0 -66 -6q-70 -12 -118 -39t-96 -81q-26 -29 -41 -55q-41 -72 -41 -133q0 -30 8 -64q23 -95 114 -147q79 -45 186 -45q44 0 127 16q97 17 175 44q93 33 172 78
q40 23 160 103q115 77 240 187q76 67 167 161q33 36 110 118z" />
    <glyph glyph-name="E" unicode="E" horiz-adv-x="1710" 
d="M1630 388q0 -39 -172 -110q-37 -15 -101.5 -50t-100.5 -50q-95 -39 -141 -62q-98 -48 -297 -93q-187 -41 -282 -41q-5 0 -48 -2.5t-49 -2.5q-63 0 -158 24l-70 18t-65 28q-73 46 -111 159q-27 81 -27 149q0 186 96 300q75 90 258 145q34 10 107 10q103 0 204 -37
q151 -56 151 -168q0 -283 -249 -339q-26 -6 -151 -38q-20 11 -40 70q-18 53 -18 81q0 19 37 28q24 1 68 11q25 8 51 16q44 16 69 43q35 36 35 91q0 50 -58 63q-20 4 -90 4q-30 0 -72 -7q-130 -21 -170 -117q-19 -48 -19 -164q0 -101 63 -144q38 -26 114 -36q8 -1 68 -1
q63 -1 78 1q38 5 181 38q182 42 294 94q102 42 204 83q157 67 263 138q22 15 52 15q16 0 57 -72q39 -68 39 -75zM1574 399q-23 40 -51 75q-36 -8 -69 -33q-49 -36 -137 -71q-114 -45 -134 -55q-124 -63 -325 -125q-209 -65 -325 -72q-21 -1 -123 -1q-91 0 -162 53
q-88 66 -88 181q0 205 131 287q66 41 187 41q68 0 117 -16q79 -27 81 -91q3 -81 -65 -135q-47 -37 -128 -60q-37 -9 -75 -19q-1 -1 -1 -3q0 -14 19.5 -47t28.5 -30q177 54 232 100q79 67 79 219q0 90 -119 137q-83 32 -171 32q-115 0 -221 -57q-134 -73 -160 -202
q-2 -13 -19 -63q-14 -40 -14 -65q0 -99 58 -210q71 -136 329 -136q365 0 658 138q121 56 241 112q139 66 226 116z" />
    <glyph glyph-name="F" unicode="F" horiz-adv-x="1339" 
d="M1334 661q-12 -12 -57 -17q-32 -3 -64 -5q-156 -20 -259 -70q-19 -6 -56 -19q-40 -15 -51 -40q8 -8 34 -13q42 -9 47 -11q16 -2 44 -12q1 -3 1 -9q0 -28 -17 -75q-19 -51 -34 -51q-36 0 -93.5 21.5t-67.5 21.5q-8 0 -16 -11q-13 -26 -38 -71q-67 -101 -134 -151
q-102 -78 -241 -120q-132 -40 -268 -40q-26 0 -36 10q-6 6 -21 55t-15 60q0 21 13 30q72 13 168 31q45 10 90 21q51 14 87 31q64 31 131.5 90t106.5 118q-42 7 -123 7q-21 0 -20 24q0 13 33.5 66t45.5 57q10 3 70.5 -1t86.5 -10q65 81 231 149q178 73 373 73q12 0 27 -44
t22 -95zM1289 705q-2 15 -4 31q-4 21 -16 21q-149 0 -314 -60q-192 -69 -257 -177q-38 11 -76 21q-45 12 -78 12q-12 0 -28.5 -26.5t-17.5 -39.5q25 -8 77 -10.5t77 -9.5q-6 -7 -85 -117q-46 -65 -102 -102q-31 -26 -96 -67q-73 -30 -165 -54q-100 -26 -162 -28
q0 -14 10 -36q14 -26 16 -34q55 5 179 27q108 28 154 48q64 29 152 96q49 39 94 104q38 59 75 117q8 11 16 11q29 0 51 -8l44 -16q9 -2 44 -15q24 -9 32 -8l15 60l-68 16q-22 5 -44 9q-17 4 -39 20q34 90 229 151q94 29 287 64z" />
    <glyph glyph-name="G" unicode="G" horiz-adv-x="1422" 
d="M1398 656q0 -19 -19 -72q-16 -45 -29 -70q-95 -191 -165 -281q-115 -147 -260 -189q-20 -9 -60 -21q-65 -12 -90 -15q-51 -7 -100 -8q-319 -7 -548 148q-20 13 -40 25q-37 27 -37 42q0 21 35 79t55 58q14 0 39 -23q31 -31 40 -36q53 -32 154 -68q130 -47 235 -55
q40 -3 78 -3q89 0 182 19q16 4 23 6q17 8 20 22q-135 3 -205 98q-59 81 -59 207q0 115 84.5 196t200.5 81q85 0 140 -24q61 -27 148 -108q25 40 28 43q18 21 38 21q27 0 66 -20q46 -23 46 -52zM1345 656q-48 24 -53 24q-4 0 -25.5 -36t-42.5 -36q-9 0 -51 38q-52 45 -97 69
q-71 37 -150 37q-91 0 -163 -69.5t-72 -163.5q0 -61 24 -117q28 -64 80 -104q35 -26 82 -35q41 -6 83 -11q5 -1 21 -1h22q10 -1 8 -4q-58 -81 -125 -98q-89 -23 -276 -23q-113 0 -250 53q-95 36 -169 82q-17 16 -50 44q-43 -73 -43 -82q0 -8 81 -53q76 -42 92 -48
q107 -37 156 -50q102 -26 191 -26q26 0 51 2q253 22 392 134q145 116 271 408q13 30 13 66zM1188 513q0 -32 -56 -117t-82 -90q-29 -6 -56 -2q-108 16 -154 65q-41 44 -41 130q0 73 42 117q47 50 135 50q61 0 136.5 -53.5t75.5 -99.5zM1130 511q0 41 -63 75q-54 30 -93 30
q-125 0 -125 -113q0 -151 155 -151q18 0 52 22.5t56 73.5q18 40 18 63z" />
    <glyph glyph-name="H" unicode="H" horiz-adv-x="1026" 
d="M1010 131q3 -13 -28 -76t-45 -63q-27 0 -62 25q-26 22 -53 44q-36 27 -102 96q-14 15 -41 56q-48 73 -72 99q-51 53 -104 53q-45 0 -80.5 -23t-44.5 -62q-1 -4 -6 -72q-3 -27 1 -74q3 -52 3 -71q2 -26 2 -77q-47 1 -122 11q-98 12 -98 26q0 6 12 43.5t13 55.5q7 77 7 99
q0 57 -13 124q-3 36 -12 99q-8 31 -46 120q-40 95 -55 109q-9 8 -27.5 31.5t-18.5 27.5q0 14 60 51q57 35 68 35q8 0 43 -42q30 -35 36 -45q2 -3 37 -56q19 -29 30 -56q12 -50 41 -141q86 50 169 50q54 0 111 -18q71 -21 109 -59q25 -25 49 -62q16 -25 47 -69q18 -26 57 -72
q41 -40 73 -58q16 -9 38 -29t24 -30zM960 116q-54 47 -127 115q-31 36 -83 116q-28 41 -67 84q-53 58 -182 58q-60 0 -89 -11q-42 -15 -93 -65q-38 126 -69 194q-46 100 -114 171q-33 -16 -73 -42q28 -19 63 -82t61 -138q51 -148 49 -291q-1 -94 -24 -186q12 1 115 -11
q0 6 1.5 17t1.5 14q0 -3 -2 48q-1 43 0 124q1 72 61 125q54 48 114 48q57 0 112 -48q36 -31 95 -109q67 -88 97 -120q61 -64 123 -89q13 29 30 78z" />
    <glyph glyph-name="I" unicode="I" horiz-adv-x="1310" 
d="M1260 123q6 -26 -6 -88q-5 -27 -11 -55t-16 -29q-28 -4 -162 27q-43 7 -134 26q-204 49 -296 78q-201 64 -268 128q-93 88 -163 197q-83 127 -84 211l16 81q3 6 71 17q62 10 77 10q36 0 41 -16q13 -42 24 -107q4 -26 40 -91q70 -128 163 -194q55 -39 231 -89
q161 -45 262 -56q77 -9 195 -26q4 -1 11 -9t9 -15zM220 841q0 -36 -39 -68t-70 -32q-38 0 -63 30q-24 27 -24 61q0 37 40.5 67.5t80.5 30.5q29 0 52 -30.5t23 -58.5zM1220 98q-92 15 -251 44q-130 25 -262 66q-159 50 -202 89q-91 82 -156 195q-60 106 -71 190l-105 -21
q-10 -13 -10 -45q0 -74 81 -193q71 -105 162 -189q76 -69 290 -132q11 -3 309 -77q25 -6 107 -20.5t90 -14.5q5 9 9 38q0 5 6 36q4 28 3 34zM181 841q0 8 -12 25q-15 20 -29 20q-22 0 -47.5 -18t-25.5 -36q0 -16 12 -33q14 -20 36 -20q12 0 39 26.5t27 35.5z" />
    <glyph glyph-name="J" unicode="J" horiz-adv-x="1279" 
d="M1252 812q1 -36 -25 -62t-64 -27q-39 -1 -68.5 28.5t-25.5 68.5q4 36 33 58t67 19q35 -3 59 -26.5t24 -58.5zM1169 643q2 -15 -24 -103q-25 -83 -38 -113q-16 -41 -53 -122q-14 -27 -45 -65q-49 -61 -50 -62q-34 -46 -108 -95q-80 -52 -168 -81q-67 -22 -152 -22
q-108 0 -245 36q-79 25 -158 49q-55 17 -73 36q-4 5 -4 17q0 25 20 98q5 23 18 53q4 4 9 4q6 0 18 -8q16 -10 22 -12q270 -84 318 -84q145 -1 276 91q117 83 182 210q32 61 69 234q26 14 34 14q19 0 85 -32t67 -43zM1208 812q-1 19 -15.5 31t-34.5 12q-37 -1 -44 -35
q-4 -20 11 -36.5t36 -15.5q19 0 33 13t14 31zM1126 629q-40 18 -100 41q-10 -90 -68 -211q-66 -140 -191 -233q-143 -106 -309 -102q-30 1 -186 50q-148 46 -156 42q-7 -4 -13 -38q-5 -30 -3 -41q3 -17 140 -59q157 -49 285 -49q73 0 128 17q87 27 165 76q75 47 108 93
q30 35 82 109q68 129 118 305z" />
    <glyph glyph-name="K" unicode="K" horiz-adv-x="1158" 
d="M1074.5 -10.5q-41.5 -5.5 -62.5 -5.5q-16 0 -49 1.5t-49 1.5q-123 0 -192 19q-88 25 -107 34q-40 20 -128 96q-20 18 -62 48q-36 26 -113 96q-7 -14 -27 -76q-15 -47 -37 -78q-29 -41 -69.5 -80.5t-53.5 -39.5q-6 0 -58 63q-47 57 -58 73q84 86 102 112.5t41 97.5
q16 47 16 108q0 64 -17 146q-11 46 -22 93q0 4 -6 25q-5 16 -5 26q0 35 195 35q19 0 29 -13q19 -25 19 -180q0 -72 -4 -148q-1 -8 24.5 -22.5t34.5 -14.5q18 0 61 47t55 77q50 121 58 188l13 17q26 -3 93.5 -18t86.5 -25l8 -20q-10 -27 -16 -49q-53 -198 -212 -314
q105 -92 153 -117q81 -43 204 -43q21 0 82.5 4.5t80.5 4.5q16 0 21 -2.5t14.5 -52.5t9.5 -82q0 -19 -6 -23t-47.5 -9.5zM1080 25q-8 65 -2 88q-36 -6 -116 -7q-117 0 -175 12q-73 15 -186 100q-102 76 -102 92q0 5 15 15q23 14 25 16q91 75 125 140q20 37 66 183
q-43 9 -93 23q2 -113 -82 -222.5t-156 -107.5q-31 20 -91 58q5 38 5 88q0 49 -9 122q-14 117 -15 121q-101 0 -115 -4q39 -176 39 -258q0 -76 -19 -135q-26 -80 -35 -97q-20 -36 -91 -114q12 -16 35 -38q26 -25 32 -20q47 35 94 106q25 37 44 96q16 53 21 57
q86 -60 191 -147q90 -76 140 -106q42 -25 84 -34l96 -18q79 -18 275 -9z" />
    <glyph glyph-name="L" unicode="L" horiz-adv-x="1270" 
d="M1223 166q14 -25 -2 -85q-4 -14 -21 -64q-9 -4 -39 -4q12 0 -117 7q-217 11 -380 33q-311 44 -418 123q-81 61 -128 137q-41 68 -72 179q-14 46 -20 122q-6 77 0 122q38 32 173 39q16 -15 17.5 -37t1.5 -44q8 -104 14 -134q21 -100 79 -173q77 -96 219 -149
q109 -40 288 -48q100 -1 199 -2q56 0 151 -3q47 -4 55 -19zM1180 136q-8 7 -64 7q-34 0 -68 -1q-148 2 -234 9q-206 17 -336 65q-175 65 -251 237q-58 129 -49 277q-46 -5 -110 -18q6 -19 6 -60q0 -47 5 -70q26 -133 66 -209q47 -90 143 -166.5t394 -117.5q226 -30 364 -24
q22 0 64.5 -4t62.5 -4z" />
    <glyph glyph-name="M" unicode="M" horiz-adv-x="2828" 
d="M2739 91q-10 -11 -33 -25q-25 -7 -73 -29q-40 -18 -48 -18q-19 0 -28 4q-17 7 -35 34q-59 100 -117 199q-100 159 -178 204q-60 34 -152 43q-35 3 -153 3q-137 0 -185 -5q-161 -16 -273 -76q5 -19 48 -123q34 -83 34 -130q0 -14 -14 -35q-133 -29 -211 -31
q-24 46 -51 147q-26 97 -50 142q-39 74 -112 115q-25 14 -120 14q-210 0 -394 -137q-100 -75 -253 -256q-117 -138 -165 -138q-20 0 -78 61q-56 57 -56 64q0 15 122 137q110 111 171 164q389 339 663 339q72 0 154 -40q51 -26 119 -76q55 -40 62 -40q6 0 57.5 22t73.5 25
q114 23 228 45q173 33 246 33q295 0 480 -125q206 -139 321 -511zM2689 122q-68 131 -105 203q-45 88 -121.5 163t-162.5 118q-145 72 -365 71q-73 0 -222 -30q-209 -43 -243 -48q-24 -4 -71.5 -22.5t-52.5 -18.5q-32 0 -91 39q-87 59 -115 72q-77 39 -157 39
q-90 0 -201.5 -46t-215.5 -126q-288 -223 -425 -381q-30 -34 -30 -40q0 -10 30.5 -41t40.5 -31q20 0 138 138q143 168 267 256q194 137 401 137q120 0 184 -43q58 -39 99 -137q18 -41 81 -238q46 9 137 23v35q0 7 -43.5 107t-43.5 107q0 21 37 42q25 11 49 23q61 33 215 52
q132 17 266 17q146 0 233 -38t173 -143q67 -81 203 -294q30 14 111 35z" />
    <glyph glyph-name="N" unicode="N" horiz-adv-x="2354" 
d="M2296 153q0 -25 -89.5 -87t-110.5 -62q-16 0 -22 6q-15 17 -29 35q-13 26 -43 73q-91 106 -222 212q-143 116 -241 153q-25 16 -73 42q-132 64 -336 64q-256 0 -498 -172.5t-366 -439.5q-54 11 -109 23q-80 21 -80 66q0 85 124 223q99 110 249 226q131 101 190 127
q97 44 144 62q87 34 143 43q31 8 90 19q213 19 282 19q92 0 254 -75q109 -54 219 -109q62 -28 107 -60q59 -43 223 -188q194 -170 194 -200zM2239 159q-145 133 -199 180q-116 104 -185 158t-265 142q-213 96 -291 96q-158 0 -317 -28q-193 -34 -308 -98q-140 -78 -272 -187
q-146 -120 -233 -239q-34 -45 -52 -127q43 -10 127 -34q106 251 361 430q260 182 528 182q202 0 355 -70q30 -17 79 -41q98 -35 244 -153q139 -112 225 -218q32 -40 60 -97q45 29 89.5 58t53.5 46z" />
    <glyph glyph-name="O" unicode="O" horiz-adv-x="1257" 
d="M1226 375q0 -146 -163 -276q-128 -101 -399 -101h-174q-160 0 -292 63q-167 80 -165 222v7q1 106 61.5 214t150.5 162q95 56 250 92q142 32 266 32q118 0 240 -44q107 -38 169 -148q56 -100 56 -223zM1172 378q0 29 -9 85q-10 60 -19 81q-45 96 -170 151q-109 47 -230 47
q-245 0 -436 -107q-231 -129 -231 -355q0 -40 22 -84q23 -48 135 -99q106 -49 166 -49h260q175 0 276 39q86 33 158 116q78 90 78 175zM1074 435q0 -11 -19 -72q-48 -147 -226 -205q-121 -38 -322 -38q-127 0 -209 30q-119 45 -119 150q0 35 36 125q57 142 231 196
q118 37 320 37q19 0 76 -15q50 -14 77 -24q155 -58 155 -184zM1017 435q0 58 -30 88q-24 25 -84 45q-76 26 -104 31q-39 8 -106 8q-158 0 -256 -38q-127 -49 -178 -168q-30 -69 -30 -101q0 -82 106 -112q61 -18 176 -18q181 0 284 30q161 46 205 169q17 46 17 66z" />
    <glyph glyph-name="P" unicode="P" horiz-adv-x="1617" 
d="M1552 504q2 -13 2 -26q0 -142 -189 -236q-159 -78 -325 -78q-39 0 -66 7q-97 22 -183 77q8 20 52 71q47 55 61 52q7 -2 43 -19.5t57 -21.5q13 -3 33 -3q98 0 203 42q127 52 127 129q0 15 -6 31q-37 109 -129 130q-20 5 -40 5q-40 0 -75 -18q-93 -49 -198 -180
q-77 -95 -195 -213q-128 -128 -209 -185q-16 -11 -63 -28q-57 -20 -193 -46q-147 -27 -196 -22q-25 51 -22 145q11 4 111 14q95 9 151 32q60 25 145 83q73 51 144 133q105 120 132 147q57 50 180 171q42 45 123 81q92 40 180 40q52 0 98 -15q219 -75 247 -299zM1510 502
q-26 186 -207 258q-46 19 -99 19q-85 0 -173 -44q-77 -38 -121 -89q-64 -75 -280 -289q-33 -33 -109 -107q-26 -26 -89 -78q-77 -53 -199 -72q-57 -9 -164 -11l14 -81l204 34q178 39 254 102q138 114 277 267q97 107 193 214q28 28 75 51q56 27 109 27q19 0 37 -4
q139 -29 179 -179q4 -17 4 -32q0 -94 -146 -152q-119 -47 -245 -47q-33 0 -53 5q-2 0 -69 30q-15 -22 -49 -61q60 -35 129 -51q22 -5 57 -5q151 0 295 65q177 80 177 206q0 12 -1 24z" />
    <glyph glyph-name="Q" unicode="Q" horiz-adv-x="1835" 
d="M1802 200q0 -40 -112 -95q-81 -40 -153 -61q-157 -46 -256 -54q-31 -2 -63 -2q-221 0 -404 92q-94 48 -170 187l-112 228q-64 110 -145 110q-62 0 -118 -26q-68 -31 -68 -83q0 -57 60.5 -121.5t112.5 -64.5q31 0 90.5 13.5t89.5 13.5q19 0 36 -51q15 -43 15 -69
q0 -28 -110 -61q-96 -30 -136 -30q-115 0 -235 121t-120 247q0 102 114 204t217 102q133 0 207 -35q78 -37 146 -138q42 -63 87 -151t64 -116q37 -56 91 -96.5t152 -69.5q90 -26 158 -26q17 0 29 2q70 11 242 88q165 74 169 74q16 0 69 -58t53 -74zM1736 194q0 6 -30 39.5
t-37 38.5q-60 -43 -188 -93t-204 -61q-18 -3 -39 -3q-89 0 -208 40q-109 36 -145 69q-99 91 -150 210q-135 317 -372 317q-99 0 -201 -79q-108 -84 -108 -180q0 -107 104 -209.5t201 -102.5q62 0 188 40l-8 69q-41 -10 -83 -21q-48 -12 -84 -12q-68 0 -144.5 80t-76.5 152
q0 76 80 125q70 42 154 42q93 0 174 -116q68 -117 135 -234q84 -144 166 -186q67 -35 188 -61q127 -29 203 -22q52 4 137 23.5t131 38.5q58 23 117 46q100 40 100 50z" />
    <glyph glyph-name="R" unicode="R" horiz-adv-x="1533" 
d="M1464 588q-12 -49 -29 -82q-12 -24 -25 -49t-31 -25q-1 0 -91 37q-98 40 -127 50q-218 75 -371 75q-26 0 -220 -28q-30 -4 -83 -27q-80 -34 -83 -36q-48 -17 -74 -83l-32 -102q-18 -80 -37 -159q-37 -153 -49 -151q-12 0 -89 8q-84 8 -94 13q26 133 44 192q23 76 43 218
q22 155 43 311q22 13 73 23l82 14q13 -19 13 -52q0 -5 -1 -15v-14q0 -28 9 -44q47 50 156.5 81t257.5 36q132 5 308 -34q149 -33 277 -83q35 -14 69 -35q30 -19 61 -39zM1415 576q-146 74 -250 101q-235 64 -407 64q-144 0 -281 -49q-43 -15 -101 -48q-65 -37 -85 -46
q-16 56 -16 135q-24 -4 -79 -20q0 -45 -15 -145q-25 -170 -29 -203q-5 -42 -23 -111q-15 -61 -47 -186q30 0 55 -5q21 -5 41 -9q16 29 31 113q19 102 25 123q14 57 28 113q27 100 47 111q131 74 274 99q125 22 192 22q140 0 301 -42q154 -40 295 -109q17 32 44 92z" />
    <glyph glyph-name="S" unicode="S" horiz-adv-x="2050" 
d="M2001 681q0 -42 -15 -91q-20 -64 -51 -64q-33 0 -98.5 15.5t-99.5 15.5q-23 0 -86 -9q-81 -11 -102 -13q-40 -4 -105 -21q-61 -17 -97 -33q-75 -34 -168 -107q-80 -65 -161 -129q-144 -109 -289 -165q-45 -17 -237 -40q-179 -21 -247 -21q-49 0 -124 15q-91 17 -113 40
q20 93 47 175q71 -4 236 -21q106 -11 112 -11q151 0 252 35q85 29 177 102q98 82 195 165q149 125 292 182q100 39 212 57q96 15 197 11q72 -2 152 -16q76 -14 100 -26q21 -11 21 -46zM1955 682q-81 20 -110 26q-60 12 -120 15q-36 2 -66 2q-130 0 -280 -50
q-95 -32 -174 -89q-50 -35 -136 -115q-94 -87 -152 -132q-229 -175 -491 -175q-23 0 -69.5 3.5t-69.5 3.5q-26 0 -95.5 20t-110.5 19q-7 -39 -20 -117q130 -28 187 -28q65 0 207 18q124 15 208 30q77 14 152 53q82 42 261 186q167 134 268 178q53 22 71 29q43 16 75 19
q62 5 149 21q33 6 89 6q30 0 92 -13t92 -13q25 0 33 41z" />
    <glyph glyph-name="T" unicode="T" horiz-adv-x="1114" 
d="M1066 130q3 -3 3 -20q0 -57 -16 -145q10 0 -226 0q-166 0 -334 86q-176 89 -259 226q-13 -4 -176 -48q-14 30 -38 151q20 9 66 28q34 10 87 27q-17 81 -34.5 200.5t-17.5 153.5q0 8 63 22.5t100 14.5q33 0 24 1q7 -1 15 -7t10 -46q2 -61 3 -72q5 -51 10.5 -104t22.5 -95
q54 14 174 50q25 -39 52 -174q-18 -7 -81 -19q-52 -9 -74 -26q50 -79 176 -126q71 -27 218 -55q10 -2 124 -10q102 -7 108 -13zM1020 96q-14 6 -37 6q-7 0 -22 -1t-22 -1q-105 0 -216 28q-123 30 -212 85q-42 26 -95 84q-51 54 -47 63q2 7 68 23q51 12 103 25q-7 30 -28 87
q-140 -44 -153 -44q-44 0 -64 164q-8 80 -17 162q-3 3 -27 -1q-29 -4 -32 -4q-29 0 -36 -3q-13 -5 -13 -26q0 -51 12 -126l22 -124q2 -12 16 -48q13 -31 10 -35q-5 -7 -47 -19q-58 -17 -73 -22.5t-38 -15.5q4 -32 13 -68q155 46 170 46q9 0 20 -16q7 -11 14 -23
q30 -44 89 -98q68 -63 128 -91q19 -12 62 -32q175 -56 259 -56h90q55 1 90 0q1 18 13 81z" />
    <glyph glyph-name="U" unicode="U" horiz-adv-x="1895" 
d="M1825 642q2 -31 -2 -37q-118 -193 -236 -329q-178 -204 -326 -242l-76 -26q-75 -23 -110 -23q-7 0 -102.5 -3t-102.5 -3q-113 0 -187.5 18t-178.5 70q-119 59 -212 133q-45 37 -136 130q-18 18 -63 74q-34 41 -64 66q-2 7 -2 15q0 35 61 85q54 44 68 44l61 -70
q73 -87 139 -149q96 -90 175 -128q178 -85 353 -85q104 0 221 41q112 40 208 108q85 60 152 143q63 79 137 212q10 18 27 18q5 0 33 -11q32 -13 43 -15q37 -9 59 -14q38 -11 61 -22zM1769 613q-79 19 -133 35q-131 -245 -290 -369q-189 -148 -465 -148q-77 0 -185 28
q-126 34 -226 91q-67 38 -149 118q-53 53 -119 129q-52 61 -54 61q-20 0 -45 -32l-26 -38q10 -9 111 -123q68 -76 132 -125q75 -57 152 -98q212 -112 350 -112q-8 0 52 -2q48 -1 80 0q56 3 154 13q24 8 69 21q156 37 338 217q162 160 254 334z" />
    <glyph glyph-name="V" unicode="V" horiz-adv-x="1846" 
d="M1830 579q-12 -4 -83 -14q-20 -3 -119 -30q-109 -30 -256.5 -129t-217.5 -189q-193 -245 -205 -245q-173 0 -216 16q-20 7 -32 44q-1 2 -15 56q-28 108 -128 249q-10 18 -32 52q-53 75 -158 132q-94 51 -196 72q-7 1 -67 4q-41 2 -63 17l12 112q8 62 20 63q176 8 352 -83
q146 -75 260 -198q51 -54 83 -110q19 -32 49.5 -101.5t57.5 -116.5q24 35 49 69q36 53 40 67q128 183 293 270q78 42 156 83q102 51 159 66l92 28q54 16 93 16q6 0 33 -6q29 -49 39 -194zM1778 626q-3 35 -10 90q-95 -5 -199 -49q-92 -42 -184 -85q-102 -42 -211.5 -131
t-172.5 -179q-28 -49 -55 -99q-44 -74 -68 -74q-19 0 -62 90q-26 56 -52 113q-37 76 -67 116q-93 123 -166 176q-62 46 -192 96q-56 22 -148 39q-75 14 -87 13q-1 -69 -7 -101q17 -7 34 -6q40 3 34 3q17 0 102.5 -26t107.5 -36q117 -55 222 -203q95 -133 137 -272
q11 -37 23 -62q181 -9 193 -9q68 91 212 270q83 95 238 183q151 86 279 114q33 10 99 29z" />
    <glyph glyph-name="W" unicode="W" horiz-adv-x="1935" 
d="M1912 749q-16 -159 -22 -200q-15 -95 -50 -196q-71 -202 -219 -290q-134 -80 -358 -80q-52 0 -147 30t-109 30q-10 0 -100.5 -26.5t-152.5 -26.5q-218 0 -381 96q-126 74 -243 313q-47 96 -60 131q-29 75 -29 139q0 19 7 27q4 5 65 22t70 17q20 0 31 -29q7 -23 14 -45
q112 -221 189 -316q140 -172 304 -172q44 -1 86 5q48 7 55 18q5 9 -45 132q-53 131 -53 166q0 61 139 61q22 0 32 -18q12 -24 22 -68q13 -56 18 -71q84 -247 271 -247q98 0 163 24q59 22 143 84q46 35 79 119q18 46 41 139q18 119 41 242q12 13 54 13q51 0 145 -23z
M1866 704q-15 5 -47 13q-51 11 -54 7q-8 -11 -26 -109q-11 -65 -23 -129q-26 -115 -68 -184q-49 -76 -141 -133q-113 -70 -263 -70q-194 0 -298 233q-52 115 -54 171q-58 0 -87 -14q26 -94 28 -98q15 -46 40 -94q59 -108 59 -116q-1 -17 -91 -37q-81 -19 -117 -19
q-69 0 -98 9q-75 22 -127 57q-98 66 -160 156q-25 37 -107 191q-4 8 -67 144q-27 -6 -79 -21q8 -66 61 -186q48 -110 93 -175q102 -150 216 -205q103 -49 296 -56q72 -3 165 26q46 17 92 33q5 2 99 -31q101 -36 157 -36q96 0 226 31q22 5 56 22q83 42 122 79q45 40 85 118
q31 58 69 202.5t43 220.5z" />
    <glyph glyph-name="X" unicode="X" horiz-adv-x="1500" 
d="M1463 72q0 -8 -8 -18q-37 -8 -112 -21q-89 -11 -157 -11q-63 0 -141 34q-90 39 -164 99q-70 63 -141 125q-60 -52 -154 -98l-168 -76q-51 -23 -136 -39q-71 -13 -141 -26q-42 -9 -48 -9q-31 0 -38 36q-1 6 -1 62q0 70 6 78.5t81 17.5q48 5 95 11q31 5 97 27q48 16 157 65
q126 57 127 71t-95 78q-80 53 -123 75q-34 17 -69 27q-24 5 -63 17q-5 3 -33 4q-22 1 -22 10q0 45 11 103t21 62.5t27 4.5q53 0 150 -35.5t154 -74.5q89 -61 172 -153q32 34 120 70q107 43 150 71q12 9 47 36q26 19 30 19q7 0 77.5 -40t72.5 -50q3 -25 -77.5 -85.5
t-129.5 -75.5q-96 -30 -178 -72q115 -96 173 -130q102 -59 205 -59q30 0 97.5 21t74.5 21q26 0 35 -26q2 -4 10.5 -71t8.5 -75zM1419 92q-5 34 -17 107q-121 -35 -203 -35q-23 0 -105 24q-48 14 -97 48q-204 142 -204 159q0 6 32 26q28 18 40 23q113 48 175 78
q134 65 142 95q-4 2 -36 27q-29 22 -33 22q-3 0 -27 -18q-32 -25 -45 -33q-47 -31 -146 -69q-88 -34 -115 -58q-30 -26 -40 -26q-9 0 -64 57q-69 73 -123 114q-130 97 -266 97q-11 0 -23 -8q-1 -10 -7 -43q-4 -29 -4 -44q132 -10 212 -59q76 -55 153 -111q12 -8 62 -60
q-60 -70 -200 -133q-123 -54 -233 -74q-46 -8 -154 -15q5 -68 4 -112q92 21 185 43q107 27 178 65q20 11 94 40q57 23 90 48q24 20 49 40q37 28 50 28q4 0 90 -71q54 -44 107 -88q132 -105 266 -113q35 -2 75 4q34 6 67 11q9 2 35 8q22 6 36 6z" />
    <glyph glyph-name="Y" unicode="Y" horiz-adv-x="1377" 
d="M1359 699q0 -1 -9 -23q-16 -39 -31 -77q-19 -43 -41 -72q-17 -18 -48 -56q-95 -132 -319 -296q-12 -8 -70 -40q-71 -39 -131 -58q-53 -17 -140 -33q-258 -46 -434 -46q-45 0 -62 8l-10 14q-1 5 -14 95q-10 73 -10 94q0 13 12 24q109 -3 164 -3q186 0 313 23
q101 18 139 30q65 21 103 60q-220 180 -220 214q0 10 65.5 65.5t76.5 55.5q7 0 15 -5q22 -32 108 -115q92 -89 113 -92q71 51 102 81q40 40 76 105q18 35 37 69q29 49 51 49q20 0 89 -26q75 -29 75 -45zM1299 699q-35 12 -102 31q-66 -110 -77 -127q-43 -64 -95 -114
q-75 -72 -93 -72q-24 0 -127 89q-95 81 -123 115q-8 -4 -74 -59q70 -85 186 -169q13 -9 27 -20t14 -25q0 -29 -61 -63q-44 -21 -88 -43q-112 -58 -502 -58q-8 0 -22.5 1.5t-21.5 1.5q-11 0 -31 -3t-29 -3q12 -117 25 -133q196 0 498 54q107 19 219 89q51 32 192 141
q24 17 69 54q143 149 192 251q8 15 16.5 31.5t7.5 30.5z" />
    <glyph glyph-name="Z" unicode="Z" horiz-adv-x="1824" 
d="M1801 80q-15 -13 -63 -23q-36 -7 -71 -15q-176 -52 -474 -52q-40 0 -120.5 3.5t-120.5 3.5q-43 0 -127.5 -2.5t-126.5 -2.5q-63 0 -84 40q-13 27 -13 100q0 44 102 227q67 116 134 233q-15 0 -43.5 2t-42.5 2q-30 0 -77 -2q-53 -2 -81 -3q10 0 -167 0q-62 0 -173 -14
q-120 -16 -171 -18q-22 19 -30 86q-6 48 -4 96q12 10 97 22q78 12 106 12q80 0 241.5 -2t241.5 -2q31 0 110 3t110 3q17 0 50.5 -5t49.5 -5t33 -59l22 -78q-3 -53 -106 -225q-71 -112 -142 -225l224 1q181 0 258 6q37 1 110 7q17 3 137 28q93 20 134 20q27 0 40 -28
q3 -8 13 -51q2 -7 16 -41q10 -24 8 -42zM1743 97q-12 48 -26 94q-45 -1 -120 -18q-96 -20 -120 -24q-115 -16 -258 -16q-39 0 -121 1.5t-127 1.5q-24 0 -71.5 -4t-70.5 -4q-10 0 -29 18q0 42 59 122q81 111 101 150q15 31 47 99q53 115 52 117q-5 10 -24 66q-12 35 -21 35
q-29 0 -141 -3q-120 -2 -193 -2q-103 0 -244 2q-156 2 -185 2q-30 0 -83 -9q-62 -11 -83 -12q8 -38 21 -113q40 13 161 27q112 13 163 13h163q35 1 102 3q59 2 96 2q78 0 103 -19q0 -45 -120 -257q-122 -215 -123 -231q-2 -12 4 -53q6 -47 13 -47q50 0 150 3.5t150 3.5
q37 0 111.5 -3.5t111.5 -3.5q229 0 352 22q2 1 100 23q60 14 100 14z" />
    <glyph glyph-name="bracketleft" unicode="[" horiz-adv-x="795" 
d="M763 796l-2 -149q-15 -1 -107 -4q-54 -1 -95 -10q-137 -30 -213.5 -90t-138.5 -185q-11 -24 -22.5 -67.5t-11.5 -67.5q0 -30 25 -70q21 -31 43 -63q-3 -17 -54 -55q-34 -24 -68 -49q-49 29 -85 91.5t-36 118.5q0 117 97 277q91 149 194 222q151 107 424 107
q37 0 41.5 -2.5t8.5 -3.5zM727 690q0 25 -3 67q-217 -4 -341 -58q-156 -67 -244 -238l-66 -128q-33 -74 -33 -139q0 -41 25 -83q13 -22 54 -71l68 50q-21 24 -39.5 65t-18.5 68q0 17 11 69q35 152 204 300q65 56 182 78q49 9 201 20z" />
    <glyph glyph-name="backslash" unicode="\" horiz-adv-x="906" 
d="M876 168q2 -13 -55 -107q-6 -10 -18 -12q-9 -1 -69 32q-56 31 -74 45q-113 87 -243 182q-41 27 -118 85q-82 66 -162 147q-16 16 -65 74.5t-50 63.5q-3 18 17 34q17 11 33 22q11 8 23 17.5t23 11.5q20 3 39 -17l28 -36q13 -13 39 -40q78 -89 218 -185q120 -78 241 -157
q93 -62 108 -74q81 -59 85 -86zM822 173q-1 7 -161 115q-18 12 -182 119q-26 17 -69 47l-114 86q-62 51 -101 100q-18 18 -49 59q-9 16 -13 16q-13 -2 -26 -14.5t-24 -24.5q103 -125 196 -204q143 -123 228 -179q21 -14 134 -97q81 -60 139 -90q42 66 42 67z" />
    <glyph glyph-name="bracketright" unicode="]" horiz-adv-x="706" 
d="M641 424q0 -44 -24 -99q-88 -203 -437 -308q-77 -23 -114 -23q-20 0 -25 9q-8 17 -24 72q-15 52 -15 58q0 20 17 25q49 13 147 45q12 4 71 18q41 9 65 28q21 16 39 28q116 78 116 184q0 33 -19 70q-18 33 -37 66q-11 21 -74 62q-42 27 -42 40q0 3 22 44q25 47 30 57.5
t22 10.5q20 0 87 -28q93 -39 149 -163q46 -101 46 -196zM598 423q0 82 -61 195q-25 46 -60 84q-43 46 -83 57l-24 7q-17 -25 -39 -62q29 -10 62 -39q29 -27 45 -52q60 -99 60 -153q0 -81 -46 -143.5t-169 -116.5q-97 -42 -213 -70q-10 -2 -22 -7q7 -38 26 -86q54 7 99 22
q134 47 214 92q145 83 190 189q21 47 21 83z" />
    <glyph glyph-name="asciicircum" unicode="^" horiz-adv-x="1149" 
d="M1118 423q-11 -20 -41 -59q-31 -42 -42 -51q-63 32 -185 99l-216 125q-12 7 -51 34q-31 22 -36 22q-3 0 -95 -59q-99 -64 -122 -76q-45 -27 -89 -54q-90 -54 -108 -54q-15 0 -65.5 59.5t-42.5 64.5q44 25 96 53q26 13 71 36q51 25 144 77l128 84q85 54 96 54q4 0 12 -3.5
t10 -4.5q29 -6 76 -40q65 -47 74 -52q91 -53 214 -129q53 -33 164 -106q14 -9 8 -20zM1074 421q-98 65 -154 100q-76 42 -228 137q-49 34 -67 46q-48 31 -65 34q-2 1 -134 -83q-140 -88 -168 -101q-102 -47 -178 -99q5 -5 32 -38q23 -26 26 -26t172 99q41 25 149 92
q83 52 91 52q11 0 49 -27q20 -15 41 -30q64 -40 199 -117q30 -15 114 -61q73 -40 74 -40q9 0 29 29q16 25 18 33z" />
    <glyph glyph-name="underscore" unicode="_" horiz-adv-x="1119" 
d="M1092 62q0 -26 -15 -35q-9 -5 -33 -5q-3 0 -17.5 1.5t-18.5 1.5q-3 0 -127.5 -8t-127.5 -8q-140 0 -383 5q-46 1 -139.5 7t-90.5 6q-3 0 -49.5 -4t-49.5 -4q-16 0 -21 29q-1 13 -2 28q-5 59 -5 105q9 11 18 11q62 0 267 -5q40 -1 134 -10q87 -8 136 -8q208 0 278 6
q21 1 109 13q69 9 108 9q5 0 12 -6t8 -11q9 -43 9 -118zM1056 66q0 27 -8 90q-35 0 -98 -8q-82 -9 -98 -10q-44 -2 -117 -4q-38 -2 -167 -2q-71 0 -215 9.5t-221 9.5q9 0 -84 4q1 -16 7 -96q15 0 45.5 2.5t45.5 2.5q-2 0 95 -6q102 -6 152 -7q237 -6 368 -6q28 0 158 9
q137 8 137 12z" />
    <glyph glyph-name="grave" unicode="`" horiz-adv-x="306" 
d="M276 462q-42 -32 -119 -46q-54 60 -103 227q-5 20 -14 67q135 37 167 37q7 0 8 -2q5 -19 8 -94q0 -24 7 -43q16 -51 46 -146zM238 480q-14 20 -34 94q-14 53 -16 123q-27 -4 -48 -7q-48 -9 -50 -15.5t-2 -13.5q0 -15 10 -39.5t20 -47.5q17 -35 57 -120z" />
    <glyph glyph-name="a" unicode="a" horiz-adv-x="1599" 
d="M1560 218q0 -41 -117 -98l-76 48q-63 -58 -223 -114q-155 -56 -244 -56q-121 0 -215 56q-111 65 -111 177q0 85 76 194q70 101 150 149q-82 50 -222 50q-143 0 -250 -47q-101 -44 -207 -147q-19 -1 -46 4l-53 86q6 66 126 133q98 55 244 95q131 37 203 37q124 0 356 -90
q243 -93 411 -215q198 -142 198 -262zM1503 229q-4 87 -181 215q-160 115 -374 205q-219 91 -340 91q-110 0 -304 -62q-227 -73 -238 -153l42 -57q78 102 217 154q121 45 263 45q209 0 273 -80q-121 -119 -147 -150q-85 -103 -85 -183q0 -101 86 -159q75 -51 183 -51
q87 0 235 64q123 52 218 116q52 -14 96 -47zM1284 289q0 -46 -162 -109q-145 -56 -199 -56h-63q-58 0 -97 35q-42 36 -42 94q0 54 94.5 164.5t142.5 110.5q50 0 188 -98t138 -141zM1221 296q-210 176 -265 176q-25 0 -103.5 -95.5t-78.5 -126.5q0 -39 41 -60q33 -18 76 -18
q68 0 178 37q123 41 152 87z" />
    <glyph glyph-name="b" unicode="b" horiz-adv-x="1554" 
d="M1545 304q-18 -121 -105.5 -205t-199.5 -94q-209 -19 -832 340q-315 181 -435 298q15 21 73 90q61 73 66 74q6 2 40 -28q53 -45 62 -53q253 -194 419 -292q211 -124 272 -156q133 -69 228 -86q52 -9 63 -9q21 0 49 8q93 28 104 142q7 76 -113 130q-90 40 -143 40
q-70 0 -113 -45q-27 -28 -49 -83q-18 -45 -26 -45t-59 28q-25 13 -50.5 27t-24.5 21q21 123 122 208q93 79 191 79q76 0 182 -45q117 -49 192 -124q89 -88 89 -188q0 -16 -2 -32zM1496 299q4 19 4 38q0 87 -81 165q-68 67 -174 111q-96 40 -163 40q-89 0 -176.5 -77.5
t-91.5 -162.5q31 -19 79 -47q33 183 188 183q84 0 188 -54q130 -67 125 -165q-7 -131 -95 -170q-44 -19 -88 -19q-31 0 -149 28q-41 10 -152 58q-117 51 -217 111q-53 32 -205 134q-283 188 -371 282q-35 -31 -75 -92q19 -23 45 -43q34 -26 38 -30q44 -41 181 -126
q134 -83 275 -157q291 -152 333 -172q176 -81 282 -81q109 0 193 68t107 178z" />
    <glyph glyph-name="c" unicode="c" horiz-adv-x="1672" 
d="M1632 329q0 -22 -120 -102q-100 -67 -136 -84q-96 -45 -301 -100q-210 -55 -293 -55q-204 0 -383 82q-226 103 -226 284q0 85 31 176q35 102 96 168q99 109 242 109q34 0 88 -18q68 -23 73 -53q3 -19 -32 -77t-52 -58q4 0 -31.5 4.5t-64.5 4.5q-1 0 -52 -17
q-60 -21 -75 -49q-44 -82 -44 -155q0 -72 50 -120q43 -42 140.5 -76.5t222.5 -31.5q90 2 229 39q87 24 173 49q82 19 122 40.5t80 43.5q6 4 72 62q57 50 78 50q19 0 66 -48.5t47 -67.5zM1584 336l-65 65q-60 -49 -93 -73q-58 -41 -83 -57q-48 -31 -80 -42
q-200 -68 -400 -104q-30 -6 -98 -15q-137 -9 -305 57q-31 13 -70.5 44t-57 55.5t-22.5 75.5q-1 16 -1 83q0 82 63 153q68 76 158 76q43 0 77 -17q51 86 48 93q-9 28 -119 28q-136 0 -229 -123q-86 -114 -86 -255q0 -43 12 -94q13 -58 33 -85q62 -83 237 -133
q144 -41 274 -41q87 0 258 43q177 45 315 106q75 33 138 80z" />
    <glyph glyph-name="d" unicode="d" horiz-adv-x="1675" 
d="M1598 768q-5 -17 -20 -34q-21 -22 -62 -66q-54 -58 -180 -186q-131 -123 -192 -172q-94 -76 -212 -144q-156 -90 -322 -133q-92 -23 -224 -37q-12 -2 -26 -2q-64 0 -136 22q-76 24 -109 56q-55 55 -74 161q-8 42 -8 78q0 96 66 194q106 159 313 159q73 0 154 -20
q88 -23 189 -105q85 -69 97 -103q-3 -13 -80.5 -51t-89.5 -35q-19 29 -70 62q-78 50 -164 50q-49 0 -99 -17q-136 -48 -136 -154q0 -71 71 -104q47 -22 103 -22q91 0 298 83q102 42 180 87q63 38 166 113q107 77 255 236q146 156 152 161q23 15 48 7q17 -5 60 -37.5
t52 -46.5zM1536 757q-10 3 -31.5 25.5t-32.5 25.5q-10 -14 -38 -39q-43 -38 -51 -46q-43 -42 -139 -145q-77 -82 -103 -102q-182 -143 -215 -165q-108 -74 -236 -121q-79 -28 -174 -49q-86 -19 -124 -19q-83 0 -143 29q-90 44 -82 146q11 135 174 197q51 19 105 19
q88 0 174 -47q67 -38 85 -69q6 6 42 20.5t40 24.5q-19 34 -87 83q-78 58 -152 78q-65 17 -109 17q-30 0 -66 -6q-70 -12 -118 -39t-96 -81q-26 -29 -41 -55q-41 -72 -41 -133q0 -30 8 -64q23 -95 114 -147q79 -45 186 -45q44 0 127 16q97 17 175 44q93 33 172 78
q40 23 160 103q115 77 240 187q76 67 167 161q33 36 110 118z" />
    <glyph glyph-name="e" unicode="e" horiz-adv-x="1710" 
d="M1630 388q0 -39 -172 -110q-37 -15 -101.5 -50t-100.5 -50q-95 -39 -141 -62q-98 -48 -297 -93q-187 -41 -282 -41q-5 0 -48 -2.5t-49 -2.5q-63 0 -158 24l-70 18t-65 28q-73 46 -111 159q-27 81 -27 149q0 186 96 300q75 90 258 145q34 10 107 10q103 0 204 -37
q151 -56 151 -168q0 -283 -249 -339q-26 -6 -151 -38q-20 11 -40 70q-18 53 -18 81q0 19 37 28q24 1 68 11q25 8 51 16q44 16 69 43q35 36 35 91q0 50 -58 63q-20 4 -90 4q-30 0 -72 -7q-130 -21 -170 -117q-19 -48 -19 -164q0 -101 63 -144q38 -26 114 -36q8 -1 68 -1
q63 -1 78 1q38 5 181 38q182 42 294 94q102 42 204 83q157 67 263 138q22 15 52 15q16 0 57 -72q39 -68 39 -75zM1574 399q-23 40 -51 75q-36 -8 -69 -33q-49 -36 -137 -71q-114 -45 -134 -55q-124 -63 -325 -125q-209 -65 -325 -72q-21 -1 -123 -1q-91 0 -162 53
q-88 66 -88 181q0 205 131 287q66 41 187 41q68 0 117 -16q79 -27 81 -91q3 -81 -65 -135q-47 -37 -128 -60q-37 -9 -75 -19q-1 -1 -1 -3q0 -14 19.5 -47t28.5 -30q177 54 232 100q79 67 79 219q0 90 -119 137q-83 32 -171 32q-115 0 -221 -57q-134 -73 -160 -202
q-2 -13 -19 -63q-14 -40 -14 -65q0 -99 58 -210q71 -136 329 -136q365 0 658 138q121 56 241 112q139 66 226 116z" />
    <glyph glyph-name="f" unicode="f" horiz-adv-x="1339" 
d="M1334 661q-12 -12 -57 -17q-32 -3 -64 -5q-156 -20 -259 -70q-19 -6 -56 -19q-40 -15 -51 -40q8 -8 34 -13q42 -9 47 -11q16 -2 44 -12q1 -3 1 -9q0 -28 -17 -75q-19 -51 -34 -51q-36 0 -93.5 21.5t-67.5 21.5q-8 0 -16 -11q-13 -26 -38 -71q-67 -101 -134 -151
q-102 -78 -241 -120q-132 -40 -268 -40q-26 0 -36 10q-6 6 -21 55t-15 60q0 21 13 30q72 13 168 31q45 10 90 21q51 14 87 31q64 31 131.5 90t106.5 118q-42 7 -123 7q-21 0 -20 24q0 13 33.5 66t45.5 57q10 3 70.5 -1t86.5 -10q65 81 231 149q178 73 373 73q12 0 27 -44
t22 -95zM1289 705q-2 15 -4 31q-4 21 -16 21q-149 0 -314 -60q-192 -69 -257 -177q-38 11 -76 21q-45 12 -78 12q-12 0 -28.5 -26.5t-17.5 -39.5q25 -8 77 -10.5t77 -9.5q-6 -7 -85 -117q-46 -65 -102 -102q-31 -26 -96 -67q-73 -30 -165 -54q-100 -26 -162 -28
q0 -14 10 -36q14 -26 16 -34q55 5 179 27q108 28 154 48q64 29 152 96q49 39 94 104q38 59 75 117q8 11 16 11q29 0 51 -8l44 -16q9 -2 44 -15q24 -9 32 -8l15 60l-68 16q-22 5 -44 9q-17 4 -39 20q34 90 229 151q94 29 287 64z" />
    <glyph glyph-name="g" unicode="g" horiz-adv-x="1422" 
d="M1398 656q0 -19 -19 -72q-16 -45 -29 -70q-95 -191 -165 -281q-115 -147 -260 -189q-20 -9 -60 -21q-65 -12 -90 -15q-51 -7 -100 -8q-319 -7 -548 148q-20 13 -40 25q-37 27 -37 42q0 21 35 79t55 58q14 0 39 -23q31 -31 40 -36q53 -32 154 -68q130 -47 235 -55
q40 -3 78 -3q89 0 182 19q16 4 23 6q17 8 20 22q-135 3 -205 98q-59 81 -59 207q0 115 84.5 196t200.5 81q85 0 140 -24q61 -27 148 -108q25 40 28 43q18 21 38 21q27 0 66 -20q46 -23 46 -52zM1345 656q-48 24 -53 24q-4 0 -25.5 -36t-42.5 -36q-9 0 -51 38q-52 45 -97 69
q-71 37 -150 37q-91 0 -163 -69.5t-72 -163.5q0 -61 24 -117q28 -64 80 -104q35 -26 82 -35q41 -6 83 -11q5 -1 21 -1h22q10 -1 8 -4q-58 -81 -125 -98q-89 -23 -276 -23q-113 0 -250 53q-95 36 -169 82q-17 16 -50 44q-43 -73 -43 -82q0 -8 81 -53q76 -42 92 -48
q107 -37 156 -50q102 -26 191 -26q26 0 51 2q253 22 392 134q145 116 271 408q13 30 13 66zM1188 513q0 -32 -56 -117t-82 -90q-29 -6 -56 -2q-108 16 -154 65q-41 44 -41 130q0 73 42 117q47 50 135 50q61 0 136.5 -53.5t75.5 -99.5zM1130 511q0 41 -63 75q-54 30 -93 30
q-125 0 -125 -113q0 -151 155 -151q18 0 52 22.5t56 73.5q18 40 18 63z" />
    <glyph glyph-name="h" unicode="h" horiz-adv-x="1026" 
d="M1010 131q3 -13 -28 -76t-45 -63q-27 0 -62 25q-26 22 -53 44q-36 27 -102 96q-14 15 -41 56q-48 73 -72 99q-51 53 -104 53q-45 0 -80.5 -23t-44.5 -62q-1 -4 -6 -72q-3 -27 1 -74q3 -52 3 -71q2 -26 2 -77q-47 1 -122 11q-98 12 -98 26q0 6 12 43.5t13 55.5q7 77 7 99
q0 57 -13 124q-3 36 -12 99q-8 31 -46 120q-40 95 -55 109q-9 8 -27.5 31.5t-18.5 27.5q0 14 60 51q57 35 68 35q8 0 43 -42q30 -35 36 -45q2 -3 37 -56q19 -29 30 -56q12 -50 41 -141q86 50 169 50q54 0 111 -18q71 -21 109 -59q25 -25 49 -62q16 -25 47 -69q18 -26 57 -72
q41 -40 73 -58q16 -9 38 -29t24 -30zM960 116q-54 47 -127 115q-31 36 -83 116q-28 41 -67 84q-53 58 -182 58q-60 0 -89 -11q-42 -15 -93 -65q-38 126 -69 194q-46 100 -114 171q-33 -16 -73 -42q28 -19 63 -82t61 -138q51 -148 49 -291q-1 -94 -24 -186q12 1 115 -11
q0 6 1.5 17t1.5 14q0 -3 -2 48q-1 43 0 124q1 72 61 125q54 48 114 48q57 0 112 -48q36 -31 95 -109q67 -88 97 -120q61 -64 123 -89q13 29 30 78z" />
    <glyph glyph-name="i" unicode="i" horiz-adv-x="1310" 
d="M1260 123q6 -26 -6 -88q-5 -27 -11 -55t-16 -29q-28 -4 -162 27q-43 7 -134 26q-204 49 -296 78q-201 64 -268 128q-93 88 -163 197q-83 127 -84 211l16 81q3 6 71 17q62 10 77 10q36 0 41 -16q13 -42 24 -107q4 -26 40 -91q70 -128 163 -194q55 -39 231 -89
q161 -45 262 -56q77 -9 195 -26q4 -1 11 -9t9 -15zM220 841q0 -36 -39 -68t-70 -32q-38 0 -63 30q-24 27 -24 61q0 37 40.5 67.5t80.5 30.5q29 0 52 -30.5t23 -58.5zM1220 98q-92 15 -251 44q-130 25 -262 66q-159 50 -202 89q-91 82 -156 195q-60 106 -71 190l-105 -21
q-10 -13 -10 -45q0 -74 81 -193q71 -105 162 -189q76 -69 290 -132q11 -3 309 -77q25 -6 107 -20.5t90 -14.5q5 9 9 38q0 5 6 36q4 28 3 34zM181 841q0 8 -12 25q-15 20 -29 20q-22 0 -47.5 -18t-25.5 -36q0 -16 12 -33q14 -20 36 -20q12 0 39 26.5t27 35.5z" />
    <glyph glyph-name="j" unicode="j" horiz-adv-x="1279" 
d="M1252 812q1 -36 -25 -62t-64 -27q-39 -1 -68.5 28.5t-25.5 68.5q4 36 33 58t67 19q35 -3 59 -26.5t24 -58.5zM1169 643q2 -15 -24 -103q-25 -83 -38 -113q-16 -41 -53 -122q-14 -27 -45 -65q-49 -61 -50 -62q-34 -46 -108 -95q-80 -52 -168 -81q-67 -22 -152 -22
q-108 0 -245 36q-79 25 -158 49q-55 17 -73 36q-4 5 -4 17q0 25 20 98q5 23 18 53q4 4 9 4q6 0 18 -8q16 -10 22 -12q270 -84 318 -84q145 -1 276 91q117 83 182 210q32 61 69 234q26 14 34 14q19 0 85 -32t67 -43zM1208 812q-1 19 -15.5 31t-34.5 12q-37 -1 -44 -35
q-4 -20 11 -36.5t36 -15.5q19 0 33 13t14 31zM1126 629q-40 18 -100 41q-10 -90 -68 -211q-66 -140 -191 -233q-143 -106 -309 -102q-30 1 -186 50q-148 46 -156 42q-7 -4 -13 -38q-5 -30 -3 -41q3 -17 140 -59q157 -49 285 -49q73 0 128 17q87 27 165 76q75 47 108 93
q30 35 82 109q68 129 118 305z" />
    <glyph glyph-name="k" unicode="k" horiz-adv-x="1158" 
d="M1074.5 -10.5q-41.5 -5.5 -62.5 -5.5q-16 0 -49 1.5t-49 1.5q-123 0 -192 19q-88 25 -107 34q-40 20 -128 96q-20 18 -62 48q-36 26 -113 96q-7 -14 -27 -76q-15 -47 -37 -78q-29 -41 -69.5 -80.5t-53.5 -39.5q-6 0 -58 63q-47 57 -58 73q84 86 102 112.5t41 97.5
q16 47 16 108q0 64 -17 146q-11 46 -22 93q0 4 -6 25q-5 16 -5 26q0 35 195 35q19 0 29 -13q19 -25 19 -180q0 -72 -4 -148q-1 -8 24.5 -22.5t34.5 -14.5q18 0 61 47t55 77q50 121 58 188l13 17q26 -3 93.5 -18t86.5 -25l8 -20q-10 -27 -16 -49q-53 -198 -212 -314
q105 -92 153 -117q81 -43 204 -43q21 0 82.5 4.5t80.5 4.5q16 0 21 -2.5t14.5 -52.5t9.5 -82q0 -19 -6 -23t-47.5 -9.5zM1080 25q-8 65 -2 88q-36 -6 -116 -7q-117 0 -175 12q-73 15 -186 100q-102 76 -102 92q0 5 15 15q23 14 25 16q91 75 125 140q20 37 66 183
q-43 9 -93 23q2 -113 -82 -222.5t-156 -107.5q-31 20 -91 58q5 38 5 88q0 49 -9 122q-14 117 -15 121q-101 0 -115 -4q39 -176 39 -258q0 -76 -19 -135q-26 -80 -35 -97q-20 -36 -91 -114q12 -16 35 -38q26 -25 32 -20q47 35 94 106q25 37 44 96q16 53 21 57
q86 -60 191 -147q90 -76 140 -106q42 -25 84 -34l96 -18q79 -18 275 -9z" />
    <glyph glyph-name="l" unicode="l" horiz-adv-x="1270" 
d="M1223 166q14 -25 -2 -85q-4 -14 -21 -64q-9 -4 -39 -4q12 0 -117 7q-217 11 -380 33q-311 44 -418 123q-81 61 -128 137q-41 68 -72 179q-14 46 -20 122q-6 77 0 122q38 32 173 39q16 -15 17.5 -37t1.5 -44q8 -104 14 -134q21 -100 79 -173q77 -96 219 -149
q109 -40 288 -48q100 -1 199 -2q56 0 151 -3q47 -4 55 -19zM1180 136q-8 7 -64 7q-34 0 -68 -1q-148 2 -234 9q-206 17 -336 65q-175 65 -251 237q-58 129 -49 277q-46 -5 -110 -18q6 -19 6 -60q0 -47 5 -70q26 -133 66 -209q47 -90 143 -166.5t394 -117.5q226 -30 364 -24
q22 0 64.5 -4t62.5 -4z" />
    <glyph glyph-name="m" unicode="m" horiz-adv-x="2828" 
d="M2739 91q-10 -11 -33 -25q-25 -7 -73 -29q-40 -18 -48 -18q-19 0 -28 4q-17 7 -35 34q-59 100 -117 199q-100 159 -178 204q-60 34 -152 43q-35 3 -153 3q-137 0 -185 -5q-161 -16 -273 -76q5 -19 48 -123q34 -83 34 -130q0 -14 -14 -35q-133 -29 -211 -31
q-24 46 -51 147q-26 97 -50 142q-39 74 -112 115q-25 14 -120 14q-210 0 -394 -137q-100 -75 -253 -256q-117 -138 -165 -138q-20 0 -78 61q-56 57 -56 64q0 15 122 137q110 111 171 164q389 339 663 339q72 0 154 -40q51 -26 119 -76q55 -40 62 -40q6 0 57.5 22t73.5 25
q114 23 228 45q173 33 246 33q295 0 480 -125q206 -139 321 -511zM2689 122q-68 131 -105 203q-45 88 -121.5 163t-162.5 118q-145 72 -365 71q-73 0 -222 -30q-209 -43 -243 -48q-24 -4 -71.5 -22.5t-52.5 -18.5q-32 0 -91 39q-87 59 -115 72q-77 39 -157 39
q-90 0 -201.5 -46t-215.5 -126q-288 -223 -425 -381q-30 -34 -30 -40q0 -10 30.5 -41t40.5 -31q20 0 138 138q143 168 267 256q194 137 401 137q120 0 184 -43q58 -39 99 -137q18 -41 81 -238q46 9 137 23v35q0 7 -43.5 107t-43.5 107q0 21 37 42q25 11 49 23q61 33 215 52
q132 17 266 17q146 0 233 -38t173 -143q67 -81 203 -294q30 14 111 35z" />
    <glyph glyph-name="n" unicode="n" horiz-adv-x="2354" 
d="M2296 153q0 -25 -89.5 -87t-110.5 -62q-16 0 -22 6q-15 17 -29 35q-13 26 -43 73q-91 106 -222 212q-143 116 -241 153q-25 16 -73 42q-132 64 -336 64q-256 0 -498 -172.5t-366 -439.5q-54 11 -109 23q-80 21 -80 66q0 85 124 223q99 110 249 226q131 101 190 127
q97 44 144 62q87 34 143 43q31 8 90 19q213 19 282 19q92 0 254 -75q109 -54 219 -109q62 -28 107 -60q59 -43 223 -188q194 -170 194 -200zM2239 159q-145 133 -199 180q-116 104 -185 158t-265 142q-213 96 -291 96q-158 0 -317 -28q-193 -34 -308 -98q-140 -78 -272 -187
q-146 -120 -233 -239q-34 -45 -52 -127q43 -10 127 -34q106 251 361 430q260 182 528 182q202 0 355 -70q30 -17 79 -41q98 -35 244 -153q139 -112 225 -218q32 -40 60 -97q45 29 89.5 58t53.5 46z" />
    <glyph glyph-name="o" unicode="o" horiz-adv-x="1257" 
d="M1226 375q0 -146 -163 -276q-128 -101 -399 -101h-174q-160 0 -292 63q-167 80 -165 222v7q1 106 61.5 214t150.5 162q95 56 250 92q142 32 266 32q118 0 240 -44q107 -38 169 -148q56 -100 56 -223zM1172 378q0 29 -9 85q-10 60 -19 81q-45 96 -170 151q-109 47 -230 47
q-245 0 -436 -107q-231 -129 -231 -355q0 -40 22 -84q23 -48 135 -99q106 -49 166 -49h260q175 0 276 39q86 33 158 116q78 90 78 175zM1074 435q0 -11 -19 -72q-48 -147 -226 -205q-121 -38 -322 -38q-127 0 -209 30q-119 45 -119 150q0 35 36 125q57 142 231 196
q118 37 320 37q19 0 76 -15q50 -14 77 -24q155 -58 155 -184zM1017 435q0 58 -30 88q-24 25 -84 45q-76 26 -104 31q-39 8 -106 8q-158 0 -256 -38q-127 -49 -178 -168q-30 -69 -30 -101q0 -82 106 -112q61 -18 176 -18q181 0 284 30q161 46 205 169q17 46 17 66z" />
    <glyph glyph-name="p" unicode="p" horiz-adv-x="1617" 
d="M1552 504q2 -13 2 -26q0 -142 -189 -236q-159 -78 -325 -78q-39 0 -66 7q-97 22 -183 77q8 20 52 71q47 55 61 52q7 -2 43 -19.5t57 -21.5q13 -3 33 -3q98 0 203 42q127 52 127 129q0 15 -6 31q-37 109 -129 130q-20 5 -40 5q-40 0 -75 -18q-93 -49 -198 -180
q-77 -95 -195 -213q-128 -128 -209 -185q-16 -11 -63 -28q-57 -20 -193 -46q-147 -27 -196 -22q-25 51 -22 145q11 4 111 14q95 9 151 32q60 25 145 83q73 51 144 133q105 120 132 147q57 50 180 171q42 45 123 81q92 40 180 40q52 0 98 -15q219 -75 247 -299zM1510 502
q-26 186 -207 258q-46 19 -99 19q-85 0 -173 -44q-77 -38 -121 -89q-64 -75 -280 -289q-33 -33 -109 -107q-26 -26 -89 -78q-77 -53 -199 -72q-57 -9 -164 -11l14 -81l204 34q178 39 254 102q138 114 277 267q97 107 193 214q28 28 75 51q56 27 109 27q19 0 37 -4
q139 -29 179 -179q4 -17 4 -32q0 -94 -146 -152q-119 -47 -245 -47q-33 0 -53 5q-2 0 -69 30q-15 -22 -49 -61q60 -35 129 -51q22 -5 57 -5q151 0 295 65q177 80 177 206q0 12 -1 24z" />
    <glyph glyph-name="q" unicode="q" horiz-adv-x="1835" 
d="M1802 200q0 -40 -112 -95q-81 -40 -153 -61q-157 -46 -256 -54q-31 -2 -63 -2q-221 0 -404 92q-94 48 -170 187l-112 228q-64 110 -145 110q-62 0 -118 -26q-68 -31 -68 -83q0 -57 60.5 -121.5t112.5 -64.5q31 0 90.5 13.5t89.5 13.5q19 0 36 -51q15 -43 15 -69
q0 -28 -110 -61q-96 -30 -136 -30q-115 0 -235 121t-120 247q0 102 114 204t217 102q133 0 207 -35q78 -37 146 -138q42 -63 87 -151t64 -116q37 -56 91 -96.5t152 -69.5q90 -26 158 -26q17 0 29 2q70 11 242 88q165 74 169 74q16 0 69 -58t53 -74zM1736 194q0 6 -30 39.5
t-37 38.5q-60 -43 -188 -93t-204 -61q-18 -3 -39 -3q-89 0 -208 40q-109 36 -145 69q-99 91 -150 210q-135 317 -372 317q-99 0 -201 -79q-108 -84 -108 -180q0 -107 104 -209.5t201 -102.5q62 0 188 40l-8 69q-41 -10 -83 -21q-48 -12 -84 -12q-68 0 -144.5 80t-76.5 152
q0 76 80 125q70 42 154 42q93 0 174 -116q68 -117 135 -234q84 -144 166 -186q67 -35 188 -61q127 -29 203 -22q52 4 137 23.5t131 38.5q58 23 117 46q100 40 100 50z" />
    <glyph glyph-name="r" unicode="r" horiz-adv-x="1533" 
d="M1464 588q-12 -49 -29 -82q-12 -24 -25 -49t-31 -25q-1 0 -91 37q-98 40 -127 50q-218 75 -371 75q-26 0 -220 -28q-30 -4 -83 -27q-80 -34 -83 -36q-48 -17 -74 -83l-32 -102q-18 -80 -37 -159q-37 -153 -49 -151q-12 0 -89 8q-84 8 -94 13q26 133 44 192q23 76 43 218
q22 155 43 311q22 13 73 23l82 14q13 -19 13 -52q0 -5 -1 -15v-14q0 -28 9 -44q47 50 156.5 81t257.5 36q132 5 308 -34q149 -33 277 -83q35 -14 69 -35q30 -19 61 -39zM1415 576q-146 74 -250 101q-235 64 -407 64q-144 0 -281 -49q-43 -15 -101 -48q-65 -37 -85 -46
q-16 56 -16 135q-24 -4 -79 -20q0 -45 -15 -145q-25 -170 -29 -203q-5 -42 -23 -111q-15 -61 -47 -186q30 0 55 -5q21 -5 41 -9q16 29 31 113q19 102 25 123q14 57 28 113q27 100 47 111q131 74 274 99q125 22 192 22q140 0 301 -42q154 -40 295 -109q17 32 44 92z" />
    <glyph glyph-name="s" unicode="s" horiz-adv-x="2050" 
d="M2001 681q0 -42 -15 -91q-20 -64 -51 -64q-33 0 -98.5 15.5t-99.5 15.5q-23 0 -86 -9q-81 -11 -102 -13q-40 -4 -105 -21q-61 -17 -97 -33q-75 -34 -168 -107q-80 -65 -161 -129q-144 -109 -289 -165q-45 -17 -237 -40q-179 -21 -247 -21q-49 0 -124 15q-91 17 -113 40
q20 93 47 175q71 -4 236 -21q106 -11 112 -11q151 0 252 35q85 29 177 102q98 82 195 165q149 125 292 182q100 39 212 57q96 15 197 11q72 -2 152 -16q76 -14 100 -26q21 -11 21 -46zM1955 682q-81 20 -110 26q-60 12 -120 15q-36 2 -66 2q-130 0 -280 -50
q-95 -32 -174 -89q-50 -35 -136 -115q-94 -87 -152 -132q-229 -175 -491 -175q-23 0 -69.5 3.5t-69.5 3.5q-26 0 -95.5 20t-110.5 19q-7 -39 -20 -117q130 -28 187 -28q65 0 207 18q124 15 208 30q77 14 152 53q82 42 261 186q167 134 268 178q53 22 71 29q43 16 75 19
q62 5 149 21q33 6 89 6q30 0 92 -13t92 -13q25 0 33 41z" />
    <glyph glyph-name="t" unicode="t" horiz-adv-x="1114" 
d="M1066 130q3 -3 3 -20q0 -57 -16 -145q10 0 -226 0q-166 0 -334 86q-176 89 -259 226q-13 -4 -176 -48q-14 30 -38 151q20 9 66 28q34 10 87 27q-17 81 -34.5 200.5t-17.5 153.5q0 8 63 22.5t100 14.5q33 0 24 1q7 -1 15 -7t10 -46q2 -61 3 -72q5 -51 10.5 -104t22.5 -95
q54 14 174 50q25 -39 52 -174q-18 -7 -81 -19q-52 -9 -74 -26q50 -79 176 -126q71 -27 218 -55q10 -2 124 -10q102 -7 108 -13zM1020 96q-14 6 -37 6q-7 0 -22 -1t-22 -1q-105 0 -216 28q-123 30 -212 85q-42 26 -95 84q-51 54 -47 63q2 7 68 23q51 12 103 25q-7 30 -28 87
q-140 -44 -153 -44q-44 0 -64 164q-8 80 -17 162q-3 3 -27 -1q-29 -4 -32 -4q-29 0 -36 -3q-13 -5 -13 -26q0 -51 12 -126l22 -124q2 -12 16 -48q13 -31 10 -35q-5 -7 -47 -19q-58 -17 -73 -22.5t-38 -15.5q4 -32 13 -68q155 46 170 46q9 0 20 -16q7 -11 14 -23
q30 -44 89 -98q68 -63 128 -91q19 -12 62 -32q175 -56 259 -56h90q55 1 90 0q1 18 13 81z" />
    <glyph glyph-name="u" unicode="u" horiz-adv-x="1895" 
d="M1825 642q2 -31 -2 -37q-118 -193 -236 -329q-178 -204 -326 -242l-76 -26q-75 -23 -110 -23q-7 0 -102.5 -3t-102.5 -3q-113 0 -187.5 18t-178.5 70q-119 59 -212 133q-45 37 -136 130q-18 18 -63 74q-34 41 -64 66q-2 7 -2 15q0 35 61 85q54 44 68 44l61 -70
q73 -87 139 -149q96 -90 175 -128q178 -85 353 -85q104 0 221 41q112 40 208 108q85 60 152 143q63 79 137 212q10 18 27 18q5 0 33 -11q32 -13 43 -15q37 -9 59 -14q38 -11 61 -22zM1769 613q-79 19 -133 35q-131 -245 -290 -369q-189 -148 -465 -148q-77 0 -185 28
q-126 34 -226 91q-67 38 -149 118q-53 53 -119 129q-52 61 -54 61q-20 0 -45 -32l-26 -38q10 -9 111 -123q68 -76 132 -125q75 -57 152 -98q212 -112 350 -112q-8 0 52 -2q48 -1 80 0q56 3 154 13q24 8 69 21q156 37 338 217q162 160 254 334z" />
    <glyph glyph-name="v" unicode="v" horiz-adv-x="1846" 
d="M1830 579q-12 -4 -83 -14q-20 -3 -119 -30q-109 -30 -256.5 -129t-217.5 -189q-193 -245 -205 -245q-173 0 -216 16q-20 7 -32 44q-1 2 -15 56q-28 108 -128 249q-10 18 -32 52q-53 75 -158 132q-94 51 -196 72q-7 1 -67 4q-41 2 -63 17l12 112q8 62 20 63q176 8 352 -83
q146 -75 260 -198q51 -54 83 -110q19 -32 49.5 -101.5t57.5 -116.5q24 35 49 69q36 53 40 67q128 183 293 270q78 42 156 83q102 51 159 66l92 28q54 16 93 16q6 0 33 -6q29 -49 39 -194zM1778 626q-3 35 -10 90q-95 -5 -199 -49q-92 -42 -184 -85q-102 -42 -211.5 -131
t-172.5 -179q-28 -49 -55 -99q-44 -74 -68 -74q-19 0 -62 90q-26 56 -52 113q-37 76 -67 116q-93 123 -166 176q-62 46 -192 96q-56 22 -148 39q-75 14 -87 13q-1 -69 -7 -101q17 -7 34 -6q40 3 34 3q17 0 102.5 -26t107.5 -36q117 -55 222 -203q95 -133 137 -272
q11 -37 23 -62q181 -9 193 -9q68 91 212 270q83 95 238 183q151 86 279 114q33 10 99 29z" />
    <glyph glyph-name="w" unicode="w" horiz-adv-x="1935" 
d="M1912 749q-16 -159 -22 -200q-15 -95 -50 -196q-71 -202 -219 -290q-134 -80 -358 -80q-52 0 -147 30t-109 30q-10 0 -100.5 -26.5t-152.5 -26.5q-218 0 -381 96q-126 74 -243 313q-47 96 -60 131q-29 75 -29 139q0 19 7 27q4 5 65 22t70 17q20 0 31 -29q7 -23 14 -45
q112 -221 189 -316q140 -172 304 -172q44 -1 86 5q48 7 55 18q5 9 -45 132q-53 131 -53 166q0 61 139 61q22 0 32 -18q12 -24 22 -68q13 -56 18 -71q84 -247 271 -247q98 0 163 24q59 22 143 84q46 35 79 119q18 46 41 139q18 119 41 242q12 13 54 13q51 0 145 -23z
M1866 704q-15 5 -47 13q-51 11 -54 7q-8 -11 -26 -109q-11 -65 -23 -129q-26 -115 -68 -184q-49 -76 -141 -133q-113 -70 -263 -70q-194 0 -298 233q-52 115 -54 171q-58 0 -87 -14q26 -94 28 -98q15 -46 40 -94q59 -108 59 -116q-1 -17 -91 -37q-81 -19 -117 -19
q-69 0 -98 9q-75 22 -127 57q-98 66 -160 156q-25 37 -107 191q-4 8 -67 144q-27 -6 -79 -21q8 -66 61 -186q48 -110 93 -175q102 -150 216 -205q103 -49 296 -56q72 -3 165 26q46 17 92 33q5 2 99 -31q101 -36 157 -36q96 0 226 31q22 5 56 22q83 42 122 79q45 40 85 118
q31 58 69 202.5t43 220.5z" />
    <glyph glyph-name="x" unicode="x" horiz-adv-x="1500" 
d="M1463 72q0 -8 -8 -18q-37 -8 -112 -21q-89 -11 -157 -11q-63 0 -141 34q-90 39 -164 99q-70 63 -141 125q-60 -52 -154 -98l-168 -76q-51 -23 -136 -39q-71 -13 -141 -26q-42 -9 -48 -9q-31 0 -38 36q-1 6 -1 62q0 70 6 78.5t81 17.5q48 5 95 11q31 5 97 27q48 16 157 65
q126 57 127 71t-95 78q-80 53 -123 75q-34 17 -69 27q-24 5 -63 17q-5 3 -33 4q-22 1 -22 10q0 45 11 103t21 62.5t27 4.5q53 0 150 -35.5t154 -74.5q89 -61 172 -153q32 34 120 70q107 43 150 71q12 9 47 36q26 19 30 19q7 0 77.5 -40t72.5 -50q3 -25 -77.5 -85.5
t-129.5 -75.5q-96 -30 -178 -72q115 -96 173 -130q102 -59 205 -59q30 0 97.5 21t74.5 21q26 0 35 -26q2 -4 10.5 -71t8.5 -75zM1419 92q-5 34 -17 107q-121 -35 -203 -35q-23 0 -105 24q-48 14 -97 48q-204 142 -204 159q0 6 32 26q28 18 40 23q113 48 175 78
q134 65 142 95q-4 2 -36 27q-29 22 -33 22q-3 0 -27 -18q-32 -25 -45 -33q-47 -31 -146 -69q-88 -34 -115 -58q-30 -26 -40 -26q-9 0 -64 57q-69 73 -123 114q-130 97 -266 97q-11 0 -23 -8q-1 -10 -7 -43q-4 -29 -4 -44q132 -10 212 -59q76 -55 153 -111q12 -8 62 -60
q-60 -70 -200 -133q-123 -54 -233 -74q-46 -8 -154 -15q5 -68 4 -112q92 21 185 43q107 27 178 65q20 11 94 40q57 23 90 48q24 20 49 40q37 28 50 28q4 0 90 -71q54 -44 107 -88q132 -105 266 -113q35 -2 75 4q34 6 67 11q9 2 35 8q22 6 36 6z" />
    <glyph glyph-name="y" unicode="y" horiz-adv-x="1377" 
d="M1359 699q0 -1 -9 -23q-16 -39 -31 -77q-19 -43 -41 -72q-17 -18 -48 -56q-95 -132 -319 -296q-12 -8 -70 -40q-71 -39 -131 -58q-53 -17 -140 -33q-258 -46 -434 -46q-45 0 -62 8l-10 14q-1 5 -14 95q-10 73 -10 94q0 13 12 24q109 -3 164 -3q186 0 313 23
q101 18 139 30q65 21 103 60q-220 180 -220 214q0 10 65.5 65.5t76.5 55.5q7 0 15 -5q22 -32 108 -115q92 -89 113 -92q71 51 102 81q40 40 76 105q18 35 37 69q29 49 51 49q20 0 89 -26q75 -29 75 -45zM1299 699q-35 12 -102 31q-66 -110 -77 -127q-43 -64 -95 -114
q-75 -72 -93 -72q-24 0 -127 89q-95 81 -123 115q-8 -4 -74 -59q70 -85 186 -169q13 -9 27 -20t14 -25q0 -29 -61 -63q-44 -21 -88 -43q-112 -58 -502 -58q-8 0 -22.5 1.5t-21.5 1.5q-11 0 -31 -3t-29 -3q12 -117 25 -133q196 0 498 54q107 19 219 89q51 32 192 141
q24 17 69 54q143 149 192 251q8 15 16.5 31.5t7.5 30.5z" />
    <glyph glyph-name="z" unicode="z" horiz-adv-x="1824" 
d="M1801 80q-15 -13 -63 -23q-36 -7 -71 -15q-176 -52 -474 -52q-40 0 -120.5 3.5t-120.5 3.5q-43 0 -127.5 -2.5t-126.5 -2.5q-63 0 -84 40q-13 27 -13 100q0 44 102 227q67 116 134 233q-15 0 -43.5 2t-42.5 2q-30 0 -77 -2q-53 -2 -81 -3q10 0 -167 0q-62 0 -173 -14
q-120 -16 -171 -18q-22 19 -30 86q-6 48 -4 96q12 10 97 22q78 12 106 12q80 0 241.5 -2t241.5 -2q31 0 110 3t110 3q17 0 50.5 -5t49.5 -5t33 -59l22 -78q-3 -53 -106 -225q-71 -112 -142 -225l224 1q181 0 258 6q37 1 110 7q17 3 137 28q93 20 134 20q27 0 40 -28
q3 -8 13 -51q2 -7 16 -41q10 -24 8 -42zM1743 97q-12 48 -26 94q-45 -1 -120 -18q-96 -20 -120 -24q-115 -16 -258 -16q-39 0 -121 1.5t-127 1.5q-24 0 -71.5 -4t-70.5 -4q-10 0 -29 18q0 42 59 122q81 111 101 150q15 31 47 99q53 115 52 117q-5 10 -24 66q-12 35 -21 35
q-29 0 -141 -3q-120 -2 -193 -2q-103 0 -244 2q-156 2 -185 2q-30 0 -83 -9q-62 -11 -83 -12q8 -38 21 -113q40 13 161 27q112 13 163 13h163q35 1 102 3q59 2 96 2q78 0 103 -19q0 -45 -120 -257q-122 -215 -123 -231q-2 -12 4 -53q6 -47 13 -47q50 0 150 3.5t150 3.5
q37 0 111.5 -3.5t111.5 -3.5q229 0 352 22q2 1 100 23q60 14 100 14z" />
    <glyph glyph-name="braceleft" unicode="{" horiz-adv-x="795" 
d="M763 796l-2 -149q-15 -1 -107 -4q-54 -1 -95 -10q-137 -30 -213.5 -90t-138.5 -185q-11 -24 -22.5 -67.5t-11.5 -67.5q0 -30 25 -70q21 -31 43 -63q-3 -17 -54 -55q-34 -24 -68 -49q-49 29 -85 91.5t-36 118.5q0 117 97 277q91 149 194 222q151 107 424 107
q37 0 41.5 -2.5t8.5 -3.5zM727 690q0 25 -3 67q-217 -4 -341 -58q-156 -67 -244 -238l-66 -128q-33 -74 -33 -139q0 -41 25 -83q13 -22 54 -71l68 50q-21 24 -39.5 65t-18.5 68q0 17 11 69q35 152 204 300q65 56 182 78q49 9 201 20z" />
    <glyph glyph-name="bar" unicode="|" horiz-adv-x="334" 
d="M268 290q-1 -22 -5 -80q-4 -45 -3 -80q1 -23 4.5 -60.5t3.5 -38.5q0 -16 -29 -21q-13 -1 -28 -2q-59 -5 -105 -5q-11 9 -11 18q0 29 2 76q3 59 3 76q4 163 0 335q-1 43 -6 133q-4 76 -4 113q0 5 6 12t11 8q43 9 118 9q26 0 35 -15q5 -9 5 -33q0 -3 -1 -17.5t-1 -18.5
q0 -56 4 -202q4 -117 1 -207zM232 313q3 119 -2 280q-4 154 -9 154q-27 0 -89 -8q0 -33 2 -102q2 -84 3 -123q0 14 0 -392q0 9 -5 -85q16 2 97 7q0 16 -2.5 45.5t-2.5 46.5q-1 39 3 89q4 61 5 88z" />
    <glyph glyph-name="braceright" unicode="}" horiz-adv-x="706" 
d="M641 424q0 -44 -24 -99q-88 -203 -437 -308q-77 -23 -114 -23q-20 0 -25 9q-8 17 -24 72q-15 52 -15 58q0 20 17 25q49 13 147 45q12 4 71 18q41 9 65 28q21 16 39 28q116 78 116 184q0 33 -19 70q-18 33 -37 66q-11 21 -74 62q-42 27 -42 40q0 3 22 44q25 47 30 57.5
t22 10.5q20 0 87 -28q93 -39 149 -163q46 -101 46 -196zM598 423q0 82 -61 195q-25 46 -60 84q-43 46 -83 57l-24 7q-17 -25 -39 -62q29 -10 62 -39q29 -27 45 -52q60 -99 60 -153q0 -81 -46 -143.5t-169 -116.5q-97 -42 -213 -70q-10 -2 -22 -7q7 -38 26 -86q54 7 99 22
q134 47 214 92q145 83 190 189q21 47 21 83z" />
    <glyph glyph-name="asciitilde" unicode="~" horiz-adv-x="1204" 
d="M1182 568q0 -59 -163 -91q-112 -21 -211 -21q-47 0 -186.5 66t-217.5 66q-76 0 -142 -31q-36 -18 -91 -59q-41 -32 -59 -32l-115 93q175 219 409 219q75 0 163 -37q71 -35 141 -70q77 -37 121 -37q101 0 255 83q25 -23 58 -70q38 -54 38 -79zM1136 574l-47 87
q-92 -67 -196 -67q-89 0 -182 38q-75 36 -150 71q-85 38 -155 38q-106 0 -201 -48.5t-159 -133.5l66 -54q121 86 133 92q60 31 158 31q83 0 228.5 -67.5t227.5 -67.5q179 0 277 81z" />
    <glyph glyph-name="exclamdown" unicode="&#xa1;" horiz-adv-x="1260" 
d="M26 78q0 3 10 23q0 9 6 24q49 49 82 91q79 100 171 156q1 0 179 122q100 67 230 138q35 15 102 43q57 24 82 33q48 16 89 20q5 -5 35 -63q34 -63 34 -79q0 -13 -53 -42q-43 -25 -67 -33q-62 -21 -183 -64q-8 -7 -24 -15q-74 -31 -257 -158q-52 -37 -115 -88
q-24 -20 -81 -77q-59 -60 -91 -87q-14 -12 -44 -12q-21 0 -61 23q-44 24 -44 45zM1049 689q0 41 35 70q32 27 68 27q43 0 70 -42q23 -35 23 -75q0 -29 -25 -57.5t-56 -28.5q-49 0 -82 28.5t-33 77.5zM77 79l63 -31q136 148 390 323q116 79 203 116q1 0 135 46q95 32 134 61
q-19 25 -49 87q-61 -13 -149 -52t-157 -83q-91 -56 -268 -176q-19 -14 -30 -20q-71 -39 -148.5 -116.5t-123.5 -154.5zM1093 689q0 3 15 -41q5 -8 13 -13q18 -8 36 -8q19 0 31 22q10 17 10 34t-17 34.5t-35 17.5q-14 0 -32 -13q-21 -15 -21 -33z" />
    <glyph glyph-name="section" unicode="&#xa7;" 
d="M808 384q0 -76 -20 -130q-30 -79 -66 -121q-23 -27 -55 -55q-10 -9 -50 -34q-51 -31 -68 -31q-2 0 -22 -7.5t-33 -7.5q-3 0 -8.5 -1.5t-9.5 -1.5t-11.5 -2t-10.5 -3q-42 -3 -85 0q-14 1 -24 1q-30 0 -86 26q-43 19 -72 39q-40 28 -80 74q-54 62 -72 133q-17 68 -17 121
q0 137 84 245q91 117 243 144q30 6 109 6q4 0 11 -3t10.5 -3t27.5 -6.5t27 -6.5q20 0 100 -44q91 -60 138 -156q40 -84 40 -176zM790 384q0 43 -19 117q-15 56 -68 122q-58 72 -119 97q-55 22 -63 22q-4 0 -37 9t-37 9q-119 0 -200 -37q-98 -47 -163 -158q-48 -82 -48 -181
q0 -66 23 -127q35 -97 115.5 -165t179.5 -82q28 -3 93 -3q4 0 12 1.5t12 1.5t8.5 1.5t8.5 1.5t27.5 7.5t25.5 7.5t44 19q69 32 119 94q25 32 47 76q39 79 39 167zM644 633q0 -8 -16 -45t-22 -37q-5 0 -19 7q0 2 1 6q5 2 17 10q-2 12 -11.5 39t-9.5 30q0 4 4 8q19 -12 19 -40
q3 0 8 -6q6 12 18 37q11 0 11 -9zM577 619q0 -29 -25 -29q-4 0 -15.5 2t-16.5 2v41.5v42.5q15 -8 15 -25q3 -1 8.5 1.5t8.5 2.5q8 0 16.5 -15t8.5 -23zM438 637q-7 -8 -25 -9t-18 -10q0 -5 8 -13q5 0 14 9h11q0 -8 -1 -11q-5 -10 -15 -10h-11q-13 0 -21 16q-6 12 -6 19
q0 38 44 38q4 0 9.5 -10t10.5 -19zM371 594q-40 -10 -47 -10q-17 0 -17 27q0 22 19 35q7 2 23 10q3 10 3 12t5 7q1 0 9 -5q5 -18 5 -17v-59zM297 657q-1 0 -6.5 -1.5t-6.5 -1.5q-7 6 -1 18h14v-15zM495 446q0 -11 -12 -11q-4 0 -18 7v11q10 0 23 6q7 -7 7 -13zM304 637
q0 -2 -6 -9q-1 -11 -1 -53q-1 0 -7.5 -1.5t-9.5 -1.5q0 3 -1.5 8.5t-1.5 9.5q0 24 7 56q4 1 12 5q8 -8 8 -14zM431 448q-8 -5 -26 -16l-1.5 7.5t-1.5 16.5l8 1.5t18 1.5l3 -3v-8zM272 638l-10 -38q-6 -22 -17 -37q-15 5 -32 57q1 0 3.5 2t6.5 2t8.5 -10t7.5 -18
q11 3 16.5 21.5t16.5 20.5zM204 638l-4 -14h-14v9q-1 5 2.5 6t3.5 2q8 0 12 -3zM538 270l-11 5l5 31zM206 555q-5 -9 -20 -16q-1 46 3 73l-3 5h20v-62zM656 336q0 -24 -7 -34q-17 -16 -47 -52q0 -5 -5 -15q-18 -22 -54 -24q-30 -1 -61 -2q-6 -4 -4 -9q-37 -23 -48 -23
q-3 0 -17 7.5t-18 7.5t-40.5 -6t-39.5 -6q-34 0 -73 16.5t-58 16.5q-22 0 -62 -11q6 7 46 23t46 16q8 0 35 -24.5t43 -24.5h39q27 0 59 13q5 2 6 3.5t1 3.5q-2 4 -2 7q54 2 153 7q25 2 38 17q3 3 7 43q0 -5 7 -18q11 15 11 24q0 4 -6 21.5t-6 21.5q0 11 12 23q2 7 -11 7
q-17 0 -45 -25q1 -3 4 -3q-8 -9 -16 -10q-32 -7 -70 -7q4 0 -66 20q31 2 31 19q0 13 -18 24q5 -2 19 -8.5t18 -6.5q10 0 17 12q4 10 8 19v-31h24q11 6 35 15q-8 -8 -15 -22v-17l0.5 -1.5t5.5 -1.5l28 20q6 4 39 18q0 7 -4 17q-54 64 -146 106l-6 -6q-18 -3 -81 -24
q20 17 43 29q10 3 20 5q14 5 19 15h-50q-5 -1 -49 -20q-49 -21 -75 -36q-3 -2 -50 -36q-40 -30 -46 -30h-65q20 12 23 12q4 0 5 -1.5t4 -1.5q29 0 39 6q22 19 73 56q45 29 79 43q63 25 78 25q47 0 95 -31q38 -26 64 -60q13 -13 37 -46q6 -9 -4 -19q3 -6 16 -9t14 -3
q24 -20 24 -34zM179 539q-41 -25 -47 -25q-15 0 -13 26q0 23 23 46q12 2 14.5 8t8.5 23h11q3 -26 3 -78zM571 107q0 -23 -10 -42q-3 -4 -9 -9q-2 0 -8 -3.5t-11 -3.5q-18 0 -29 23q-9 18 -9 38q0 10 2 17q4 12 20.5 23.5t24.5 11.5q17 0 24 -26q5 -15 5 -29zM486 117l-7 -7
q-2 1 -9 16q-5 11 -10 11q-21 0 -21 -44q0 -27 5 -46q-13 -7 -21 -3v79q-1 6 12.5 19.5t18.5 13.5q32 0 32 -23v-16zM407 98q-6 0 -23.5 1.5t-20.5 1.5q-10 0 -10 -9q0 -34 23.5 -34t27.5 -4q-8 -11 -24 -11q-20 0 -31.5 18t-11.5 35q0 29 11 39.5t39 10.5q6 0 13 -11t7 -17
v-20zM325 135q-17 -17 -52 -56q33 -9 37 -9q11 0 15 -4v-10q-35 5 -50 5l-9 -3q-6 0 -20 7v14q12 20 52 54q-3 7 -25.5 10.5t-26.5 10.5v10q29 -6 79 -15v-14zM559 606v29q-7 7 -12 7q-4 0 -12 -7v-26q8 -7 14 -7t10 4zM412 640q3 8 -10 14l-7 -7v-11h14zM517 487l-17 10
l-2 -4l17 -10zM349 618q0 17 -10 18q-14 3 -14 -22q0 -11 4 -18h13q7 8 7 22zM641 324v20q-5 0 -12 1.5t-11 1.5q-10 0 -10 -18q0 -11 7 -31q1 1 13 4q13 11 13 22zM161 558q0 15 -11 20q-16 -19 -16 -30q0 -4 1.5 -9t1.5 -6q1 0 2 1t5 1q17 0 17 23zM465 209q-5 0 -16 2
t-14 2q-12 0 -19 -14q8 -4 19 -4q18 0 30 14zM556 107q0 39 -15 39q-13 0 -21.5 -12t-8.5 -29q4 -38 21 -38q4 0 4 1.5t3 1.5q17 0 17 37zM395 114q-3 6 -10.5 13t-10.5 7q-15 0 -18 -20q40 0 39 0z" />
    <glyph glyph-name="questiondown" unicode="&#xbf;" horiz-adv-x="1294" 
d="M29 264q0 93 2 111q9 86 50 134q14 16 73 59q115 82 192 100q18 5 60 5q66 0 104 -12q1 0 57 -22q28 -11 65 -11q38 0 149 26l130 30q10 2 41 11q28 8 32 8q5 0 9 -3t7 -5q10 -23 30 -78t20 -60q0 -8 -9.5 -18t-15.5 -11q-30 -4 -96 -16q-49 -15 -149 -41
q-121 -26 -130 -26q-16 0 -92 20l-66 18q-39 10 -72 10q-25 0 -61 -4q-21 -2 -58 -32q-41 -32 -67 -72q-38 -59 -38 -134q0 -21 18 -38q20 -21 63 -36q17 -5 51 -16q8 -3 8 -18q0 -14 -32 -51q-28 -32 -44 -44t-35 -12q-14 0 -65 27q-74 38 -104 90q-27 45 -27 111z
M1083 664q0 39 31 60q26 17 61 17q32 0 61.5 -21t29.5 -54q0 -42 -24.5 -69t-63.5 -27q-45 0 -70 27t-25 67zM74 261q0 -16 7 -48.5t15 -47t61.5 -50t67.5 -35.5q12 0 30 22q11 14 23 28q-58 23 -83 40q-46 32 -46 77q0 118 58 191q36 44 93.5 73t109.5 30q33 1 133 -25.5
t110 -26.5q24 0 113 23q45 14 150 41q45 10 89 15q-13 37 -28 91q-22 0 -56 -10q-27 -8 -55 -16q-186 -46 -238 -46q-32 0 -56 8q-1 0 -55 22q-4 2 -41 8q-45 7 -70 7q-61 0 -120 -30q-39 -19 -104 -68q-20 -14 -40 -29t-34 -34q-37 -48 -37 -142q0 -17 1.5 -40t1.5 -28z
M1123 661q0 -20 14 -33t36 -13q17 0 31 8q18 10 18 27q0 14 -15.5 28.5t-36.5 14.5q-9 0 -18 -3q-29 -11 -29 -29z" />
    <glyph glyph-name="endash" unicode="&#x2013;" horiz-adv-x="1019" 
d="M988 351q0 -26 -15 -35q-9 -5 -33 -5q-3 0 -17.5 1t-18.5 1q-3 0 -127.5 -7.5t-127.5 -7.5q-36 0 -279 5q-46 1 -139.5 7t-90.5 6q-3 0 -49.5 -4t-49.5 -4q-16 0 -21 29q-1 13 -2 28q-5 59 -5 105q9 11 18 11q62 0 267 -5q40 -1 134 -10q87 -8 136 -8q104 0 174 5
q21 2 109 14q69 9 108 9q5 0 12 -6t8 -11q9 -43 9 -118zM952 355q0 27 -8 89q-35 0 -98 -7q-82 -9 -98 -11q-44 -1 -117 -3q-38 -2 -63 -2q-71 0 -215 9t-221 9q9 0 -84 5q1 -16 7 -97q15 0 45.5 2.5t45.5 2.5q-2 0 95 -6q102 -6 152 -7l264 -5q28 0 158 8q137 9 137 13z
" />
    <glyph glyph-name="emdash" unicode="&#x2014;" horiz-adv-x="1019" 
d="M988 351q0 -26 -15 -35q-9 -5 -33 -5q-3 0 -17.5 1t-18.5 1q-3 0 -127.5 -7.5t-127.5 -7.5q-36 0 -279 5q-46 1 -139.5 7t-90.5 6q-3 0 -49.5 -4t-49.5 -4q-16 0 -21 29q-1 13 -2 28q-5 59 -5 105q9 11 18 11q62 0 267 -5q40 -1 134 -10q87 -8 136 -8q104 0 174 5
q21 2 109 14q69 9 108 9q5 0 12 -6t8 -11q9 -43 9 -118zM952 355q0 27 -8 89q-35 0 -98 -7q-82 -9 -98 -11q-44 -1 -117 -3q-38 -2 -63 -2q-71 0 -215 9t-221 9q9 0 -84 5q1 -16 7 -97q15 0 45.5 2.5t45.5 2.5q-2 0 95 -6q102 -6 152 -7l264 -5q28 0 158 8q137 9 137 13z
" />
    <glyph glyph-name="afii00208" unicode="&#x2015;" horiz-adv-x="1019" 
d="M988 351q0 -26 -15 -35q-9 -5 -33 -5q-3 0 -17.5 1t-18.5 1q-3 0 -127.5 -7.5t-127.5 -7.5q-36 0 -279 5q-46 1 -139.5 7t-90.5 6q-3 0 -49.5 -4t-49.5 -4q-16 0 -21 29q-1 13 -2 28q-5 59 -5 105q9 11 18 11q62 0 267 -5q40 -1 134 -10q87 -8 136 -8q104 0 174 5
q21 2 109 14q69 9 108 9q5 0 12 -6t8 -11q9 -43 9 -118zM952 355q0 27 -8 89q-35 0 -98 -7q-82 -9 -98 -11q-44 -1 -117 -3q-38 -2 -63 -2q-71 0 -215 9t-221 9q9 0 -84 5q1 -16 7 -97q15 0 45.5 2.5t45.5 2.5q-2 0 95 -6q102 -6 152 -7l264 -5q28 0 158 8q137 9 137 13z
" />
    <glyph glyph-name="quoteleft" unicode="&#x2018;" horiz-adv-x="306" 
d="M37 442q5 23 15 67q49 167 102 227q78 -14 120 -46q-16 -51 -47 -146q-7 -22 -8 -67q-1 -48 -7 -70q0 -2 -7 -2q-32 0 -168 37zM87 478q4 -11 99 -23q0 33 15 123q11 40 15 52q9 28 19 42l-63 26q-19 -35 -57 -120q-9 -23 -19 -46q-11 -26 -11 -41q0 -7 2 -13z" />
    <glyph glyph-name="quoteright" unicode="&#x2019;" horiz-adv-x="306" 
d="M266 690q-4 -23 -14 -67q-49 -168 -103 -227q-77 13 -119 46q15 51 46 146q8 22 8.5 68.5t6.5 68.5q1 2 8 2q32 0 167 -37zM216 654q-4 10 -98 22q0 -32 -16 -122q-11 -40 -15 -52q-9 -28 -19 -43l63 -26q20 36 57 121q10 23 20 47.5t10 39.5q0 7 -2 13z" />
    <glyph glyph-name="quotedblleft" unicode="&#x201c;" horiz-adv-x="524" 
d="M250 442q4 23 15 67q49 167 102 227q78 -14 120 -46q-16 -51 -47 -146q-7 -22 -8 -67q-1 -48 -7 -70q0 -2 -8 -2q-31 0 -167 37zM300 478q4 -11 98 -23q1 33 16 123q11 40 15 52q9 28 19 42l-63 26q-20 -35 -57 -120q-9 -23 -19 -46q-11 -26 -11 -41q0 -7 2 -13zM16 442
q5 23 15 67q49 167 102 227q78 -14 120 -46q-16 -51 -46 -146q-8 -22 -9 -67q-1 -48 -6 -70q-1 -2 -8 -2q-32 0 -168 37zM66 478q4 -11 99 -23q0 33 16 123q10 40 14 52q9 28 19 42l-63 26q-19 -35 -56 -120l-20 -46q-11 -26 -11 -41q0 -7 2 -13z" />
    <glyph glyph-name="quotedblright" unicode="&#x201d;" horiz-adv-x="524" 
d="M266 690q-4 -23 -14 -67q-49 -168 -103 -227q-77 13 -119 46q15 51 46 146q8 22 8.5 68.5t6.5 68.5q1 2 8 2q32 0 167 -37zM216 654q-4 10 -98 22q0 -32 -16 -122q-11 -40 -15 -52q-9 -28 -19 -43l63 -26q20 36 57 121q10 23 20 47.5t10 39.5q0 7 -2 13zM500 690
q-4 -23 -14 -67q-49 -168 -103 -227q-77 13 -119 46q15 51 46 146q8 22 8.5 68.5t6.5 68.5q1 2 8 2q32 0 167 -37zM450 654q-4 10 -98 22q0 -32 -16 -122q-11 -40 -15 -52q-9 -28 -19 -43l63 -26q20 36 57 121q10 23 20 47.5t10 39.5q0 7 -2 13z" />
    <glyph glyph-name="ellipsis" unicode="&#x2026;" horiz-adv-x="812" 
d="M235 118q0 -36 -38.5 -68t-70.5 -32q-37 0 -63 30q-24 27 -24 61q0 37 42 68q39 30 80 30q28 0 51 -30.5t23 -58.5zM197 118q0 8 -13.5 27t-27.5 19q-22 0 -47.5 -18.5t-25.5 -36.5q0 -16 12 -33q14 -20 36 -20q11 0 38.5 26.5t27.5 35.5zM497 121q0 -36 -38.5 -68
t-70.5 -32q-37 0 -63 30q-24 27 -24 61q0 37 42 68q39 30 80 30q28 0 51 -30.5t23 -58.5zM459 121q0 8 -13.5 27t-27.5 19q-22 0 -47.5 -18.5t-25.5 -36.5q0 -16 12 -33q14 -20 36 -20q11 0 38.5 26.5t27.5 35.5zM759 125q0 -36 -38.5 -68t-70.5 -32q-37 0 -63 30
q-24 27 -24 61q0 37 42 68q39 30 80 30q28 0 51 -30.5t23 -58.5zM721 125q0 8 -13.5 27t-27.5 19q-22 0 -47.5 -18.5t-25.5 -36.5q0 -16 12 -33q14 -20 36 -20q11 0 38.5 26.5t27.5 35.5z" />
    </font>
</defs>
</svg>
